<svg width="42" height="42" viewBox="0 0 42 42" fill="none" xmlns="http://www.w3.org/2000/svg">
<path d="M32.3517 41.3467C31.9593 41.3456 31.5682 41.3026 31.185 41.2183C23.8894 39.7092 17.1682 36.1706 11.795 31.01C6.53645 25.838 2.88936 19.253 1.295 12.0517C1.10701 11.1542 1.15315 10.2234 1.42899 9.34887C1.70483 8.47436 2.20108 7.68555 2.87 7.05833L7.53667 2.56667C7.77503 2.34125 8.05824 2.16863 8.36782 2.06008C8.67741 1.95152 9.0064 1.90947 9.33334 1.93667C9.67233 1.97203 9.99946 2.08123 10.2917 2.25659C10.584 2.43194 10.8343 2.6692 11.025 2.95167L16.8583 11.5733C17.0771 11.9079 17.1827 12.3038 17.1596 12.7028C17.1365 13.1019 16.9859 13.4829 16.73 13.79L13.8017 17.29C14.9679 19.8712 16.6196 22.2041 18.6667 24.1617C20.7005 26.1903 23.1045 27.8101 25.7483 28.9333L29.3767 26.0517C29.6814 25.8108 30.0522 25.6684 30.4398 25.6434C30.8275 25.6184 31.2135 25.712 31.5467 25.9117L40.355 31.605C40.6573 31.7855 40.9148 32.032 41.1083 32.3262C41.3017 32.6203 41.4261 32.9544 41.4721 33.3034C41.5181 33.6525 41.4846 34.0074 41.374 34.3416C41.2633 34.6758 41.0785 34.9807 40.8333 35.2333L36.2833 39.7367C35.7665 40.251 35.153 40.658 34.4783 40.9343C33.8035 41.2106 33.0808 41.3508 32.3517 41.3467V41.3467ZM9.14667 4.24667L4.48 8.73833C4.1037 9.08898 3.82514 9.53153 3.67172 10.0225C3.5183 10.5134 3.49531 11.0358 3.605 11.5383C5.08751 18.2958 8.49534 24.4794 13.4167 29.3417C18.4732 34.1968 24.7982 37.5251 31.6633 38.9433C32.183 39.052 32.7214 39.03 33.2305 38.8793C33.7395 38.7286 34.2032 38.454 34.58 38.08L39.13 33.5767L30.625 28.0817L26.7283 31.185C26.5792 31.3031 26.4034 31.3829 26.2163 31.4174C26.0292 31.452 25.8365 31.4403 25.655 31.3833C22.4195 30.1912 19.4874 28.2989 17.0683 25.8417C14.5662 23.5051 12.6241 20.6337 11.3867 17.4417C11.3343 17.2484 11.3326 17.045 11.3816 16.8509C11.4307 16.6567 11.5288 16.4785 11.6667 16.3333L14.8167 12.565L9.14667 4.24667Z" fill="#FF3B30"/>
</svg>
