<svg width="37" height="37" viewBox="0 0 37 37" fill="none" xmlns="http://www.w3.org/2000/svg">
<path d="M18.3333 33.5H27V36.1667H18.3333C8.48948 36.1667 0.5 28.1772 0.5 18.3333C0.5 8.48948 8.48948 0.5 18.3333 0.5C28.1772 0.5 36.1667 8.48948 36.1667 18.3333V20.955C36.1667 24.3036 33.5727 27 30.25 27C28.2247 27 26.3227 26.0102 25.2271 24.5101L24.8808 24.0359L24.4678 24.4534C22.9094 26.0292 20.7264 27 18.3333 27C13.5495 27 9.66667 23.1172 9.66667 18.3333C9.66667 13.5495 13.5495 9.66667 18.3333 9.66667C23.1172 9.66667 27 13.5495 27 18.3333V20.955C27 21.8254 27.3879 22.6633 27.9676 23.2798C28.5476 23.8965 29.36 24.3333 30.25 24.3333C31.14 24.3333 31.9524 23.8965 32.5324 23.2798C33.1121 22.6633 33.5 21.8254 33.5 20.955V18.3333C33.5 10.1005 26.5661 3.16667 18.3333 3.16667C10.1005 3.16667 3.16667 10.1005 3.16667 18.3333C3.16667 26.5661 10.1005 33.5 18.3333 33.5ZM12.3333 18.3333C12.3333 21.6528 15.0139 24.3333 18.3333 24.3333C21.6528 24.3333 24.3333 21.6528 24.3333 18.3333C24.3333 15.0139 21.6528 12.3333 18.3333 12.3333C15.0139 12.3333 12.3333 15.0139 12.3333 18.3333Z" fill="#FF3B30" stroke="white"/>
</svg>
