<svg width="49" height="49" viewBox="0 0 49 49" fill="none" xmlns="http://www.w3.org/2000/svg">
<path d="M39.0852 11.5227L11.5227 39.0852C11.3094 39.2984 11.0203 39.4181 10.7188 39.4181C10.4172 39.4181 10.1281 39.2984 9.91484 39.0852C9.70163 38.8719 9.58185 38.5828 9.58185 38.2812C9.58185 37.9797 9.70163 37.6906 9.91484 37.4773L37.4773 9.91484C37.6906 9.70163 37.9797 9.58185 38.2812 9.58185C38.5828 9.58185 38.8719 9.70163 39.0852 9.91484C39.2984 10.1281 39.4181 10.4172 39.4181 10.7187C39.4181 11.0203 39.2984 11.3094 39.0852 11.5227V11.5227ZM9.95312 19.1406C9.34663 18.5392 8.86524 17.8236 8.53672 17.0352C8.2082 16.2467 8.03906 15.401 8.03906 14.5469C8.03906 13.6927 8.2082 12.847 8.53672 12.0586C8.86524 11.2702 9.34663 10.5546 9.95312 9.95312C10.5559 9.34893 11.2719 8.86956 12.0601 8.54249C12.8484 8.21542 13.6934 8.04706 14.5469 8.04706C15.4003 8.04706 16.2454 8.21542 17.0336 8.54249C17.8219 8.86956 18.5379 9.34893 19.1406 9.95312C20.0476 10.8632 20.6648 12.0213 20.9146 13.2816C21.1644 14.5419 21.0355 15.848 20.5443 17.0352C20.053 18.2224 19.2214 19.2376 18.1541 19.9529C17.0868 20.6682 15.8317 21.0515 14.5469 21.0547C13.6923 21.0579 12.8456 20.8902 12.0567 20.5615C11.2678 20.2328 10.5526 19.7497 9.95312 19.1406V19.1406ZM10.3359 14.5469C10.3387 15.2382 10.5116 15.9181 10.8394 16.5267C11.1671 17.1354 11.6397 17.654 12.2154 18.0367C12.791 18.4194 13.452 18.6546 14.1401 18.7214C14.8281 18.7881 15.522 18.6845 16.1606 18.4196C16.7991 18.1547 17.3625 17.7366 17.8012 17.2024C18.2399 16.6681 18.5403 16.0341 18.6759 15.3562C18.8116 14.6784 18.7782 13.9776 18.5789 13.3157C18.3795 12.6538 18.0202 12.0511 17.5328 11.5609C16.7375 10.7754 15.6647 10.335 14.5469 10.335C13.4291 10.335 12.3563 10.7754 11.5609 11.5609C10.7758 12.3564 10.3357 13.4292 10.3359 14.5469V14.5469ZM40.9609 34.4531C40.9636 35.5245 40.7016 36.5799 40.1984 37.5257C39.6952 38.4716 38.9662 39.2785 38.0763 39.875C37.1863 40.4715 36.1628 40.839 35.0967 40.9449C34.0306 41.0509 32.9548 40.892 31.9649 40.4824C30.9749 40.0727 30.1014 39.425 29.4219 38.5967C28.7423 37.7684 28.2778 36.7852 28.0695 35.7343C27.8612 34.6834 27.9156 33.5973 28.2278 32.5724C28.5401 31.5476 29.1005 30.6156 29.8594 29.8594C30.4621 29.2552 31.1781 28.7758 31.9664 28.4487C32.7546 28.1217 33.5997 27.9533 34.4531 27.9533C35.3066 27.9533 36.1516 28.1217 36.9399 28.4487C37.7281 28.7758 38.4441 29.2552 39.0469 29.8594C39.6577 30.4576 40.1419 31.1725 40.4708 31.9617C40.7996 32.7509 40.9663 33.5982 40.9609 34.4531ZM38.6641 34.4531C38.6643 33.3354 38.2242 32.2627 37.4391 31.4672C36.6438 30.6817 35.5709 30.2412 34.4531 30.2412C33.3353 30.2412 32.2625 30.6817 31.4672 31.4672C30.9694 31.957 30.6007 32.5624 30.3938 33.2294C30.187 33.8963 30.1485 34.6042 30.2818 35.2896C30.415 35.9751 30.7159 36.6169 31.1576 37.1578C31.5993 37.6987 32.168 38.1219 32.813 38.3895C33.458 38.6571 34.1593 38.7608 34.8541 38.6915C35.549 38.6222 36.2159 38.3819 36.7953 37.9921C37.3747 37.6023 37.8486 37.0751 38.1747 36.4576C38.5008 35.8401 38.6689 35.1514 38.6641 34.4531V34.4531Z" fill="#FF3B30"/>
</svg>
