<svg width="63" height="63" viewBox="0 0 63 63" fill="none" xmlns="http://www.w3.org/2000/svg">
<path d="M31.5 53.55L30.492 52.416C29.862 51.786 15.12 34.398 15.12 23.94C15.12 14.868 22.428 7.56 31.5 7.56C40.572 7.56 47.88 14.868 47.88 23.94C47.88 34.398 33.138 51.786 32.508 52.542L31.5 53.55ZM31.5 10.08C23.814 10.08 17.64 16.254 17.64 23.94C17.64 32.004 28.224 45.612 31.5 49.644C34.776 45.612 45.36 32.004 45.36 23.94C45.36 16.254 39.186 10.08 31.5 10.08Z" fill="#FF3B30"/>
<path d="M31.5 30.24C27.972 30.24 25.2 27.468 25.2 23.94C25.2 20.412 27.972 17.64 31.5 17.64C35.028 17.64 37.8 20.412 37.8 23.94C37.8 27.468 35.028 30.24 31.5 30.24ZM31.5 20.16C29.358 20.16 27.72 21.798 27.72 23.94C27.72 26.082 29.358 27.72 31.5 27.72C33.642 27.72 35.28 26.082 35.28 23.94C35.28 21.798 33.642 20.16 31.5 20.16Z" fill="#FF3B30"/>
</svg>
