<svg width="54" height="54" viewBox="0 0 54 54" fill="none" xmlns="http://www.w3.org/2000/svg">
<path d="M44.7188 20.25C44.7212 17.2471 43.9605 14.2929 42.508 11.6647C41.0555 9.03646 38.9589 6.82052 36.415 5.22492C33.8711 3.62931 30.9635 2.70641 27.9651 2.54285C24.9667 2.3793 21.9759 2.98047 19.2735 4.28991C16.5712 5.59935 14.246 7.5741 12.5162 10.0287C10.7865 12.4834 9.70893 15.3373 9.38479 18.3227C9.06064 21.308 9.50053 24.3267 10.6631 27.0954C11.8257 29.8641 13.6729 32.2919 16.0312 34.1508V50.625C16.0293 50.7692 16.0654 50.9113 16.1357 51.0372C16.206 51.1631 16.3082 51.2683 16.432 51.3422C16.5548 51.4171 16.6944 51.4601 16.838 51.4675C16.9817 51.4749 17.1249 51.4463 17.2547 51.3844L27 46.5117L36.7453 51.3844C36.8744 51.4494 37.018 51.4802 37.1624 51.4738C37.3068 51.4674 37.4472 51.424 37.57 51.3478C37.6928 51.2715 37.794 51.165 37.8638 51.0385C37.9336 50.9119 37.9698 50.7695 37.9688 50.625V34.1508C40.073 32.4961 41.7739 30.3851 42.9432 27.9771C44.1125 25.569 44.7196 22.9269 44.7188 20.25V20.25ZM36.2812 49.2539L27.3797 44.8031C27.2599 44.7509 27.1307 44.7239 27 44.7239C26.8693 44.7239 26.7401 44.7509 26.6203 44.8031L17.7187 49.2539V35.332C20.5077 37.0555 23.7215 37.9684 27 37.9684C30.2785 37.9684 33.4923 37.0555 36.2812 35.332V49.2539ZM27 36.2813C23.8293 36.2813 20.7298 35.341 18.0935 33.5795C15.4572 31.818 13.4024 29.3142 12.1891 26.3849C10.9757 23.4556 10.6582 20.2322 11.2768 17.1225C11.8954 14.0127 13.4222 11.1562 15.6642 8.91419C17.9062 6.67218 20.7627 5.14535 23.8725 4.52678C26.9822 3.90821 30.2056 4.22569 33.1349 5.43905C36.0642 6.65242 38.568 8.70719 40.3295 11.3435C42.091 13.9798 43.0312 17.0793 43.0312 20.25C43.0257 24.5 41.3349 28.5744 38.3296 31.5796C35.3244 34.5849 31.25 36.2757 27 36.2813ZM27 9.28125C24.8306 9.28125 22.7099 9.92455 20.9061 11.1298C19.1023 12.3351 17.6964 14.0482 16.8662 16.0524C16.036 18.0567 15.8188 20.2622 16.242 22.3899C16.6652 24.5176 17.7099 26.4721 19.2439 28.0061C20.7779 29.5401 22.7324 30.5848 24.8601 31.008C26.9878 31.4312 29.1933 31.214 31.1976 30.3838C33.2018 29.5536 34.9149 28.1477 36.1202 26.3439C37.3254 24.5401 37.9688 22.4194 37.9688 20.25C37.9688 17.3409 36.8131 14.551 34.7561 12.4939C32.699 10.4369 29.9091 9.28125 27 9.28125V9.28125ZM27 29.5312C25.1643 29.5312 23.3699 28.9869 21.8436 27.9671C20.3173 26.9472 19.1277 25.4977 18.4252 23.8018C17.7228 22.1059 17.539 20.2397 17.8971 18.4393C18.2552 16.6389 19.1392 14.9852 20.4372 13.6872C21.7352 12.3892 23.3889 11.5052 25.1893 11.1471C26.9897 10.789 28.8559 10.9728 30.5518 11.6752C32.2477 12.3777 33.6972 13.5673 34.7171 15.0936C35.7369 16.6199 36.2812 18.4143 36.2812 20.25C36.2812 22.7115 35.3034 25.0723 33.5628 26.8128C31.8223 28.5534 29.4615 29.5312 27 29.5312Z" fill="#FF3B30"/>
</svg>
