<svg
      width="35"
      height="27"
      viewBox="0 0 35 27"
    >
      <path
        d="M5.51085 23.6834H19.8267C19.5972 23.3183 19.3949 22.9424 19.2197 22.5558C19.0445 22.1692 18.9026 21.7664 18.7938 21.3476H5.25715C4.70142 21.3476 4.26953 21.2161 3.96147 20.9529C3.65341 20.6898 3.49938 20.2951 3.49938 19.7689V7.65482C3.49938 7.1286 3.65341 6.73393 3.96147 6.47082C4.26953 6.2077 4.70142 6.07614 5.25715 6.07614H24.9189C25.4867 6.07614 25.9246 6.2077 26.2327 6.47082C26.5407 6.73393 26.6948 7.1286 26.6948 7.65482V11.215C26.9122 11.1935 27.1297 11.1747 27.3471 11.1586C27.5646 11.1425 27.782 11.1344 27.9995 11.1344C28.3861 11.1344 28.821 11.1613 29.3042 11.215V4.2558C29.3042 2.90264 28.9207 1.88776 28.1535 1.21117C27.3864 0.534583 26.2297 0.196289 24.6833 0.196289H5.51085C3.97657 0.196289 2.82283 0.534583 2.04965 1.21117C1.27648 1.88776 0.889893 2.90264 0.889893 4.2558V19.6239C0.889893 20.9771 1.27648 21.992 2.04965 22.6686C2.82283 23.3451 3.97657 23.6834 5.51085 23.6834ZM7.68543 14.7107H8.51901C8.78479 14.7107 8.97203 14.665 9.08075 14.5737C9.18949 14.4824 9.24386 14.3187 9.24386 14.0824V13.3414C9.24386 13.1051 9.18949 12.9413 9.08075 12.85C8.97203 12.7587 8.78479 12.7131 8.51901 12.7131H7.68543C7.41965 12.7131 7.23239 12.7587 7.12365 12.85C7.01491 12.9413 6.96054 13.1051 6.96054 13.3414V14.0824C6.96054 14.3187 7.01491 14.4824 7.12365 14.5737C7.23239 14.665 7.41965 14.7107 7.68543 14.7107ZM7.68543 18.7863H8.51901C8.78479 18.7863 8.97203 18.7406 9.08075 18.6493C9.18949 18.558 9.24386 18.3943 9.24386 18.158V17.417C9.24386 17.1807 9.18949 17.0169 9.08075 16.9256C8.97203 16.8344 8.78479 16.7887 8.51901 16.7887H7.68543C7.41965 16.7887 7.23239 16.8344 7.12365 16.9256C7.01491 17.0169 6.96054 17.1807 6.96054 17.417V18.158C6.96054 18.3943 7.01491 18.558 7.12365 18.6493C7.23239 18.7406 7.41965 18.7863 7.68543 18.7863ZM21.6751 10.635H22.5087C22.7745 10.635 22.9617 10.5894 23.0705 10.4981C23.1792 10.4068 23.2336 10.243 23.2336 10.0068V9.26576C23.2336 9.02948 23.1792 8.86569 23.0705 8.77442C22.9617 8.68314 22.7745 8.6375 22.5087 8.6375H21.6751C21.4094 8.6375 21.2221 8.68314 21.1134 8.77442C21.0046 8.86569 20.9503 9.02948 20.9503 9.26576V10.0068C20.9503 10.243 21.0046 10.4068 21.1134 10.4981C21.2221 10.5894 21.4094 10.635 21.6751 10.635ZM17.0179 10.635H17.8515C18.1173 10.635 18.3015 10.5894 18.4042 10.4981C18.5069 10.4068 18.5582 10.243 18.5582 10.0068V9.26576C18.5582 9.02948 18.5069 8.86569 18.4042 8.77442C18.3015 8.68314 18.1173 8.6375 17.8515 8.6375H17.0179C16.7401 8.6375 16.5498 8.68314 16.4471 8.77442C16.3444 8.86569 16.2931 9.02948 16.2931 9.26576V10.0068C16.2931 10.243 16.3444 10.4068 16.4471 10.4981C16.5498 10.5894 16.7401 10.635 17.0179 10.635ZM17.0179 14.7107H17.8515C18.1173 14.7107 18.3015 14.665 18.4042 14.5737C18.5069 14.4824 18.5582 14.3187 18.5582 14.0824V13.3414C18.5582 13.1051 18.5069 12.9413 18.4042 12.85C18.3015 12.7587 18.1173 12.7131 17.8515 12.7131H17.0179C16.7401 12.7131 16.5498 12.7587 16.4471 12.85C16.3444 12.9413 16.2931 13.1051 16.2931 13.3414V14.0824C16.2931 14.3187 16.3444 14.4824 16.4471 14.5737C16.5498 14.665 16.7401 14.7107 17.0179 14.7107ZM12.3426 10.635H13.1762C13.4541 10.635 13.6443 10.5894 13.747 10.4981C13.8497 10.4068 13.901 10.243 13.901 10.0068V9.26576C13.901 9.02948 13.8497 8.86569 13.747 8.77442C13.6443 8.68314 13.4541 8.6375 13.1762 8.6375H12.3426C12.0768 8.6375 11.8926 8.68314 11.7899 8.77442C11.6872 8.86569 11.6359 9.02948 11.6359 9.26576V10.0068C11.6359 10.243 11.6872 10.4068 11.7899 10.4981C11.8926 10.5894 12.0768 10.635 12.3426 10.635ZM12.3426 14.7107H13.1762C13.4541 14.7107 13.6443 14.665 13.747 14.5737C13.8497 14.4824 13.901 14.3187 13.901 14.0824V13.3414C13.901 13.1051 13.8497 12.9413 13.747 12.85C13.6443 12.7587 13.4541 12.7131 13.1762 12.7131H12.3426C12.0768 12.7131 11.8926 12.7587 11.7899 12.85C11.6872 12.9413 11.6359 13.1051 11.6359 13.3414V14.0824C11.6359 14.3187 11.6872 14.4824 11.7899 14.5737C11.8926 14.665 12.0768 14.7107 12.3426 14.7107ZM17.0179 18.7863H17.8515C18.1173 18.7863 18.3015 18.7406 18.4042 18.6493C18.5069 18.558 18.5582 18.3943 18.5582 18.158V17.417C18.5582 17.1807 18.5069 17.0169 18.4042 16.9256C18.3015 16.8344 18.1173 16.7887 17.8515 16.7887H17.0179C16.7401 16.7887 16.5498 16.8344 16.4471 16.9256C16.3444 17.0169 16.2931 17.1807 16.2931 17.417V18.158C16.2931 18.3943 16.3444 18.558 16.4471 18.6493C16.5498 18.7406 16.7401 18.7863 17.0179 18.7863ZM12.3426 18.7863H13.1762C13.4541 18.7863 13.6443 18.7406 13.747 18.6493C13.8497 18.558 13.901 18.3943 13.901 18.158V17.417C13.901 17.1807 13.8497 17.0169 13.747 16.9256C13.6443 16.8344 13.4541 16.7887 13.1762 16.7887H12.3426C12.0768 16.7887 11.8926 16.8344 11.7899 16.9256C11.6872 17.0169 11.6359 17.1807 11.6359 17.417V18.158C11.6359 18.3943 11.6872 18.558 11.7899 18.6493C11.8926 18.7406 12.0768 18.7863 12.3426 18.7863Z"
      />
      <path
        d="M27.3195 26.0192C28.5375 26.0192 29.6605 25.7116 30.6885 25.0962C31.7165 24.4809 32.5406 23.6614 33.1608 22.6377C33.7809 21.614 34.091 20.4868 34.091 19.2561C34.091 18.0142 33.7837 16.8814 33.1692 15.8577C32.5546 14.834 31.7361 14.0173 30.7136 13.4076C29.6912 12.7978 28.5598 12.4929 27.3195 12.4929C26.0903 12.4929 24.9645 12.7978 23.9421 13.4076C22.9197 14.0173 22.1011 14.834 21.4866 15.8577C20.872 16.8814 20.5647 18.0142 20.5647 19.2561C20.5647 20.498 20.872 21.6307 21.4866 22.6544C22.1011 23.6781 22.9197 24.4949 23.9421 25.1046C24.9645 25.7144 26.0903 26.0192 27.3195 26.0192Z"
      />
    </svg>
