<svg width="31" height="30" viewBox="0 0 31 30" >
<path d="M3.90124 13.6147H10.8893C11.9696 13.6147 12.7798 13.3381 13.32 12.7848C13.8601 12.2315 14.1302 11.4016 14.1302 10.2951V3.45349C14.1302 2.34697 13.8601 1.51708 13.32 0.963827C12.7798 0.41055 11.9696 0.133911 10.8893 0.133911H3.90124C2.82097 0.133911 2.01077 0.41055 1.47063 0.963827C0.930478 1.51708 0.6604 2.34697 0.6604 3.45349V10.2951C0.6604 11.4016 0.930478 12.2315 1.47063 12.7848C2.01077 13.3381 2.82097 13.6147 3.90124 13.6147ZM3.92152 11.0643C3.43537 11.0643 3.1923 10.8079 3.1923 10.2951V3.43326C3.1923 2.93399 3.43537 2.68435 3.92152 2.68435H10.8488C11.3484 2.68435 11.5983 2.93399 11.5983 3.43326V10.2951C11.5983 10.8079 11.3484 11.0643 10.8488 11.0643H3.92152ZM19.9434 13.6147H26.9315C28.0253 13.6147 28.8389 13.3381 29.3723 12.7848C29.9057 12.2315 30.1724 11.4016 30.1724 10.2951V3.45349C30.1724 2.34697 29.9057 1.51708 29.3723 0.963827C28.8389 0.41055 28.0253 0.133911 26.9315 0.133911H19.9434C18.8632 0.133911 18.053 0.41055 17.5128 0.963827C16.9727 1.51708 16.7026 2.34697 16.7026 3.45349V10.2951C16.7026 11.4016 16.9727 12.2315 17.5128 12.7848C18.053 13.3381 18.8632 13.6147 19.9434 13.6147ZM19.984 11.0643C19.4843 11.0643 19.2345 10.8079 19.2345 10.2951V3.43326C19.2345 2.93399 19.4843 2.68435 19.984 2.68435H26.9113C27.3974 2.68435 27.6405 2.93399 27.6405 3.43326V10.2951C27.6405 10.8079 27.3974 11.0643 26.9113 11.0643H19.984ZM3.90124 29.6459H10.8893C11.9696 29.6459 12.7798 29.3726 13.32 28.8261C13.8601 28.2796 14.1302 27.4463 14.1302 26.3263V19.4847C14.1302 18.3782 13.8601 17.5516 13.32 17.0051C12.7798 16.4586 11.9696 16.1853 10.8893 16.1853H3.90124C2.82097 16.1853 2.01077 16.4586 1.47063 17.0051C0.930478 17.5516 0.6604 18.3782 0.6604 19.4847V26.3263C0.6604 27.4463 0.930478 28.2796 1.47063 28.8261C2.01077 29.3726 2.82097 29.6459 3.90124 29.6459ZM3.92152 27.0955C3.43537 27.0955 3.1923 26.8458 3.1923 26.3465V19.4847C3.1923 18.9719 3.43537 18.7155 3.92152 18.7155H10.8488C11.3484 18.7155 11.5983 18.9719 11.5983 19.4847V26.3465C11.5983 26.8458 11.3484 27.0955 10.8488 27.0955H3.92152ZM19.9434 29.6459H26.9315C28.0253 29.6459 28.8389 29.3726 29.3723 28.8261C29.9057 28.2796 30.1724 27.4463 30.1724 26.3263V19.4847C30.1724 18.3782 29.9057 17.5516 29.3723 17.0051C28.8389 16.4586 28.0253 16.1853 26.9315 16.1853H19.9434C18.8632 16.1853 18.053 16.4586 17.5128 17.0051C16.9727 17.5516 16.7026 18.3782 16.7026 19.4847V26.3263C16.7026 27.4463 16.9727 28.2796 17.5128 28.8261C18.053 29.3726 18.8632 29.6459 19.9434 29.6459ZM19.984 27.0955C19.4843 27.0955 19.2345 26.8458 19.2345 26.3465V19.4847C19.2345 18.9719 19.4843 18.7155 19.984 18.7155H26.9113C27.3974 18.7155 27.6405 18.9719 27.6405 19.4847V26.3465C27.6405 26.8458 27.3974 27.0955 26.9113 27.0955H19.984Z"/>
</svg>
