<svg width="71" height="71" viewBox="0 0 71 71" fill="none" xmlns="http://www.w3.org/2000/svg">
<path d="M35.478 71C40.3432 71 44.9153 70.0762 49.1944 68.2286C53.4734 66.381 57.2469 63.815 60.5149 60.5304C63.7828 57.2457 66.3472 53.4626 68.2083 49.1809C70.0695 44.8992 71 40.3389 71 35.5C71 30.6611 70.0695 26.1008 68.2083 21.819C66.3472 17.5373 63.7754 13.7542 60.4928 10.4696C57.2103 7.18502 53.4295 4.61894 49.1505 2.7714C44.8714 0.923802 40.2993 0 35.434 0C30.5981 0 26.0407 0.923802 21.7616 2.7714C17.4826 4.61894 13.7164 7.18502 10.4631 10.4696C7.20989 13.7542 4.65272 17.5373 2.79163 21.819C0.930544 26.1008 0 30.6611 0 35.5C0 40.3389 0.930544 44.8992 2.79163 49.1809C4.65272 53.4626 7.21721 57.2457 10.4851 60.5304C13.753 63.815 17.5265 66.381 21.8056 68.2286C26.0846 70.0762 30.6421 71 35.478 71Z" fill="#FF3B30"/>
<path d="M35.478 42.0103C33.4265 42.0103 32.3714 40.9545 32.3127 38.843L31.8292 20.1032C31.7999 19.0768 32.1296 18.2263 32.8183 17.5518C33.5071 16.8773 34.3936 16.54 35.478 16.54C36.5331 16.54 37.4124 16.8846 38.1158 17.5738C38.8192 18.263 39.1563 19.1208 39.127 20.1472L38.5994 38.843C38.5408 40.9545 37.5004 42.0103 35.478 42.0103ZM35.478 53.9316C34.3644 53.9316 33.3899 53.543 32.5546 52.7658C31.7193 51.9887 31.3016 51.0429 31.3016 49.9285C31.3016 48.814 31.7193 47.8609 32.5546 47.0691C33.3899 46.2773 34.3644 45.8814 35.478 45.8814C36.6211 45.8814 37.6102 46.27 38.4455 47.0472C39.2808 47.8243 39.6985 48.7847 39.6985 49.9285C39.6985 51.0722 39.2808 52.0253 38.4455 52.7878C37.6102 53.5503 36.6211 53.9316 35.478 53.9316Z" fill="white"/>
</svg>
