<svg width="78" height="39" viewBox="0 0 78 39" fill="none" xmlns="http://www.w3.org/2000/svg">
<path d="M26.424 39H51.55C55.1148 39 56.8973 37.847 56.8973 35.541C56.8973 34.1855 56.4906 32.7332 55.6773 31.1841C54.8639 29.635 53.6829 28.1784 52.1342 26.8142C50.5855 25.4499 48.7036 24.3321 46.4886 23.4607C44.2736 22.5894 41.7731 22.1537 38.9871 22.1537C36.201 22.1537 33.7048 22.5894 31.4985 23.4607C29.2922 24.3321 27.4103 25.4499 25.8529 26.8142C24.2955 28.1784 23.1102 29.635 22.2969 31.1841C21.4836 32.7332 21.0769 34.1855 21.0769 35.541C21.0769 37.847 22.8593 39 26.424 39ZM38.9871 19.3812C40.6137 19.3812 42.1062 18.9367 43.4646 18.0477C44.823 17.1588 45.9045 15.9661 46.7092 14.4699C47.5138 12.9736 47.9162 11.3365 47.9162 9.55857C47.9162 7.76303 47.5181 6.14353 46.7221 4.70006C45.9262 3.2566 44.8533 2.1124 43.5035 1.26746C42.1538 0.422489 40.6483 0 38.9871 0C37.3604 0 35.8679 0.431284 34.5095 1.29385C33.1511 2.15642 32.0696 3.31383 31.2649 4.76609C30.4603 6.21835 30.0579 7.83344 30.0579 9.61135C30.0579 11.3893 30.4646 13.0176 31.2779 14.4963C32.0912 15.9749 33.1727 17.1588 34.5225 18.0477C35.8722 18.9367 37.3604 19.3812 38.9871 19.3812ZM25.2559 35.4353C25.1175 35.4353 25.0093 35.4089 24.9314 35.3561C24.8536 35.3033 24.8147 35.2065 24.8147 35.0657C24.8147 34.2911 25.1218 33.3758 25.7361 32.3195C26.3504 31.2633 27.2589 30.2336 28.4616 29.2302C29.6642 28.2268 31.1438 27.3906 32.9002 26.7217C34.6566 26.0528 36.6855 25.7183 38.9871 25.7183C41.2886 25.7183 43.3175 26.0528 45.0739 26.7217C46.8303 27.3906 48.3098 28.2268 49.5124 29.2302C50.7152 30.2336 51.6237 31.2633 52.2379 32.3195C52.8524 33.3758 53.1596 34.2911 53.1596 35.0657C53.1596 35.2065 53.1249 35.3033 53.0555 35.3561C52.9863 35.4089 52.874 35.4353 52.7184 35.4353H25.2559ZM38.9871 15.8165C38.0699 15.8165 37.2177 15.5393 36.4303 14.9848C35.6429 14.4303 35.007 13.6821 34.5225 12.7404C34.0379 11.7986 33.7957 10.7556 33.7957 9.61135C33.7957 8.44956 34.0336 7.41537 34.5095 6.50878C34.9854 5.60223 35.617 4.8849 36.4044 4.35678C37.1917 3.8287 38.0526 3.56466 38.9871 3.56466C39.9388 3.56466 40.8083 3.8243 41.5957 4.34359C42.3831 4.86291 43.0103 5.57145 43.4776 6.4692C43.9448 7.36695 44.1784 8.39674 44.1784 9.55857C44.1784 10.7028 43.9405 11.7502 43.4646 12.7007C42.9887 13.6513 42.3571 14.4083 41.5698 14.9716C40.7824 15.5349 39.9215 15.8165 38.9871 15.8165Z" fill="white"/>
<path d="M62.4259 19.8565C63.8449 19.8565 65.1384 19.4692 66.3065 18.6947C67.4746 17.9201 68.4134 16.8816 69.1229 15.5789C69.8324 14.2763 70.1872 12.8328 70.1872 11.2485C70.1872 9.71701 69.8367 8.31315 69.1357 7.03693C68.435 5.76071 67.4962 4.73972 66.3193 3.97395C65.1427 3.20821 63.8449 2.82535 62.4259 2.82535C60.9899 2.82535 59.6878 3.19942 58.5197 3.94756C57.3516 4.6957 56.4215 5.70348 55.7294 6.9709C55.0369 8.23836 54.6906 9.65544 54.6906 11.2221C54.6906 12.7888 55.0411 14.2279 55.7421 15.5393C56.4431 16.8508 57.3819 17.8982 58.5585 18.6815C59.7351 19.4648 61.0242 19.8565 62.4259 19.8565ZM15.5741 19.8565C16.9757 19.8565 18.2649 19.4648 19.4416 18.6815C20.6183 17.8982 21.5571 16.8508 22.2579 15.5393C22.9588 14.2279 23.3092 12.7888 23.3092 11.2221C23.3092 9.65544 22.9631 8.23836 22.2709 6.9709C21.5787 5.70348 20.6486 4.6957 19.4805 3.94756C18.3125 3.19942 17.0103 2.82535 15.5741 2.82535C14.1551 2.82535 12.8573 3.20821 11.6806 3.97395C10.5039 4.73972 9.56507 5.76071 8.86422 7.03693C8.1634 8.31315 7.81299 9.71701 7.81299 11.2485C7.81299 12.8328 8.16773 14.2763 8.87719 15.5789C9.58669 16.8816 10.5255 17.9201 11.6935 18.6947C12.8616 19.4692 14.1551 19.8565 15.5741 19.8565ZM4.41265 39H19.8829C19.3292 38.6832 18.8792 38.2035 18.5331 37.561C18.187 36.9184 18.0659 36.2363 18.1697 35.5146H3.78967C3.68587 35.5146 3.60369 35.4882 3.54312 35.4354C3.48255 35.3826 3.45227 35.2945 3.45227 35.1713C3.45227 33.5518 4.01034 32.0115 5.12647 30.5504C6.24261 29.0894 7.72214 27.9012 9.56508 26.9858C11.408 26.0704 13.4024 25.6128 15.5481 25.6128C16.7075 25.6128 17.802 25.736 18.8316 25.9824C19.8612 26.2289 20.8433 26.5897 21.7777 27.065C22.1411 26.6073 22.5391 26.1673 22.9717 25.7448C23.4043 25.3223 23.8802 24.9263 24.3994 24.5566C23.1015 23.7468 21.7042 23.1395 20.2073 22.7346C18.7105 22.3298 17.1574 22.1273 15.5481 22.1273C13.4543 22.1273 11.4729 22.4838 9.60399 23.1967C7.73511 23.9097 6.07821 24.8822 4.63326 26.1144C3.18835 27.3467 2.05492 28.7637 1.23297 30.3656C0.41099 31.9675 0 33.6486 0 35.409C0 36.606 0.367718 37.5037 1.10315 38.1023C1.8386 38.7008 2.94176 39 4.41265 39ZM73.5872 39C75.0583 39 76.1616 38.7008 76.8969 38.1023C77.6323 37.5037 78 36.606 78 35.409C78 33.6486 77.5891 31.9675 76.7672 30.3656C75.945 28.7637 74.8115 27.3467 73.3666 26.1144C71.9217 24.8822 70.2649 23.9097 68.3962 23.1967C66.5271 22.4838 64.5457 22.1273 62.4519 22.1273C60.8426 22.1273 59.2895 22.3298 57.7925 22.7346C56.2959 23.1395 54.8987 23.7468 53.6009 24.5566C54.1201 24.9263 54.5958 25.3223 55.0282 25.7448C55.4609 26.1673 55.8589 26.6073 56.2222 27.065C57.1567 26.5897 58.1387 26.2289 59.1683 25.9824C60.1981 25.736 61.2927 25.6128 62.4519 25.6128C64.5978 25.6128 66.5922 26.0704 68.435 26.9858C70.2779 27.9012 71.7575 29.0894 72.8738 30.5504C73.9898 32.0115 74.5478 33.5518 74.5478 35.1713C74.5478 35.2945 74.5175 35.3826 74.4569 35.4354C74.3963 35.4882 74.3141 35.5146 74.2103 35.5146H59.8301C59.9339 36.2363 59.8129 36.9184 59.467 37.561C59.1208 38.2035 58.6709 38.6832 58.1173 39H73.5872ZM62.4259 16.3446C61.2666 16.3446 60.2587 15.8429 59.4022 14.8396C58.5456 13.8362 58.1173 12.6304 58.1173 11.2221C58.1173 10.3067 58.3076 9.47938 58.6882 8.74004C59.0689 8.0007 59.5881 7.41538 60.2458 6.9841C60.9032 6.55285 61.6299 6.33723 62.4259 6.33723C63.2048 6.33723 63.923 6.55727 64.5804 6.99735C65.2378 7.43743 65.7613 8.02712 66.1508 8.76643C66.5402 9.50577 66.735 10.3331 66.735 11.2485C66.735 12.6568 66.3067 13.8582 65.4501 14.8528C64.5935 15.8473 63.5855 16.3446 62.4259 16.3446ZM15.5741 16.3446C14.4147 16.3446 13.4067 15.8473 12.5501 14.8528C11.6935 13.8582 11.2652 12.6568 11.2652 11.2485C11.2652 10.3331 11.4599 9.50577 11.8493 8.76643C12.2386 8.02712 12.7621 7.43743 13.4197 6.99735C14.0772 6.55727 14.7953 6.33723 15.5741 6.33723C16.3701 6.33723 17.0969 6.55285 17.7544 6.9841C18.412 7.41538 18.9311 8.0007 19.3119 8.74004C19.6926 9.47938 19.8829 10.3067 19.8829 11.2221C19.8829 12.6304 19.4546 13.8362 18.598 14.8396C17.7415 15.8429 16.7335 16.3446 15.5741 16.3446Z" fill="white"/>
</svg>
