<svg width="25" height="24" viewBox="0 0 25 24" fill="none" xmlns="http://www.w3.org/2000/svg">
<path d="M12.1409 24C13.7855 24 15.331 23.6877 16.7774 23.0632C18.2238 22.4387 19.4994 21.5713 20.604 20.461C21.7087 19.3507 22.5756 18.0719 23.2047 16.6245C23.8338 15.1772 24.1483 13.6357 24.1483 12C24.1483 10.3643 23.8338 8.82281 23.2047 7.37545C22.5756 5.92812 21.7062 4.64931 20.5966 3.53904C19.487 2.42874 18.209 1.56133 16.7626 0.936812C15.3161 0.312271 13.7706 0 12.126 0C10.4913 0 8.9508 0.312271 7.50436 0.936812C6.05792 1.56133 4.78485 2.42874 3.68515 3.53904C2.58546 4.64931 1.72107 5.92812 1.09197 7.37545C0.462866 8.82281 0.148315 10.3643 0.148315 12C0.148315 13.6357 0.462866 15.1772 1.09197 16.6245C1.72107 18.0719 2.58794 19.3507 3.69257 20.461C4.79723 21.5713 6.07278 22.4387 7.51921 23.0632C8.96565 23.6877 10.5062 24 12.1409 24ZM12.1409 21.7398C10.7935 21.7398 9.53283 21.4895 8.35884 20.9889C7.18484 20.4882 6.15449 19.7918 5.26781 18.8996C4.38113 18.0074 3.68763 16.9715 3.18733 15.7918C2.68702 14.6121 2.43687 13.3482 2.43687 12C2.43687 10.6518 2.68455 9.38786 3.1799 8.20817C3.67525 7.0285 4.36627 5.99257 5.25296 5.10036C6.13964 4.20817 7.16997 3.51177 8.34396 3.01115C9.51797 2.51054 10.7787 2.26023 12.126 2.26023C13.4833 2.26023 14.7489 2.51054 15.9229 3.01115C17.0969 3.51177 18.1297 4.20817 19.0214 5.10036C19.913 5.99257 20.6115 7.0285 21.1167 8.20817C21.622 9.38786 21.8746 10.6518 21.8746 12C21.8746 13.3482 21.6245 14.6121 21.1241 15.7918C20.6238 16.9715 19.9303 18.0074 19.0437 18.8996C18.157 19.7918 17.1242 20.4882 15.9452 20.9889C14.7663 21.4895 13.4982 21.7398 12.1409 21.7398Z" fill="#27AAE1"/>
<path d="M10.1346 18.4387H14.8603C15.1278 18.4387 15.3532 18.3519 15.5365 18.1785C15.7198 18.005 15.8114 17.7844 15.8114 17.5167C15.8114 17.259 15.7198 17.0409 15.5365 16.8625C15.3532 16.684 15.1278 16.5948 14.8603 16.5948H13.5526V11.0335C13.5526 10.6667 13.4634 10.3742 13.2851 10.1562C13.1068 9.93807 12.8542 9.82902 12.5272 9.82902H10.3576C10.0901 9.82902 9.86221 9.91824 9.67398 10.0967C9.48573 10.2751 9.3916 10.4932 9.3916 10.7509C9.3916 11.0186 9.48573 11.2417 9.67398 11.4201C9.86221 11.5985 10.0901 11.6878 10.3576 11.6878H11.4424V16.5948H10.1346C9.86716 16.5948 9.63929 16.684 9.45104 16.8625C9.26282 17.0409 9.1687 17.259 9.1687 17.5167C9.1687 17.7844 9.26282 18.005 9.45104 18.1785C9.63929 18.3519 9.86716 18.4387 10.1346 18.4387ZM12.022 8.0149C12.4876 8.0149 12.8789 7.85133 13.1959 7.52418C13.513 7.19705 13.6715 6.80052 13.6715 6.3346C13.6715 5.86868 13.513 5.47215 13.1959 5.145C12.8789 4.81786 12.4876 4.6543 12.022 4.6543C11.5563 4.6543 11.1625 4.81786 10.8405 5.145C10.5186 5.47215 10.3576 5.86868 10.3576 6.3346C10.3576 6.80052 10.5186 7.19705 10.8405 7.52418C11.1625 7.85133 11.5563 8.0149 12.022 8.0149Z" fill="#27AAE1"/>
</svg>
