<svg width="54" height="61" viewBox="0 0 54 61" fill="none" xmlns="http://www.w3.org/2000/svg">
<path d="M25.8825 45.9945C26.4511 46.1706 27.0292 46.2846 27.5978 46.3364C28.1665 46.3883 28.7446 46.4193 29.3132 46.4193C30.7443 46.4193 32.1185 46.2225 33.4359 45.839C34.7532 45.4452 35.9947 44.8856 37.1604 44.1602C38.3167 43.4348 39.3592 42.5436 40.269 41.4969C41.1788 40.4503 41.918 39.2896 42.4961 38.0149L53.2149 48.7096C51.8597 50.6267 50.2959 52.347 48.5237 53.8704C46.7514 55.3937 44.8465 56.6891 42.7899 57.7565C40.7334 58.8239 38.5725 59.6322 36.3075 60.1711C34.0424 60.7203 31.711 61.0001 29.3132 61.0001C25.2759 61.0001 21.4755 60.254 17.9215 58.7617C14.3676 57.2694 11.259 55.1968 8.59589 52.5439C5.93278 49.8806 3.8383 46.7199 2.30298 43.0514C0.76766 39.3829 0 35.3517 0 30.9474C0 26.4498 0.76766 22.3357 2.30298 18.605C3.8383 14.8847 5.94226 11.7136 8.59589 9.08142C11.259 6.45958 14.3676 4.41807 17.9215 2.96725C21.4755 1.51643 25.2759 0.791016 29.3132 0.791016C31.7015 0.791016 34.0424 1.07082 36.3359 1.64078C38.6199 2.21075 40.7902 3.01906 42.8468 4.08645C44.9034 5.15384 46.8178 6.44922 48.609 7.99331C50.3907 9.5374 51.9639 11.268 53.3287 13.1748L25.8825 45.9945ZM33.379 16.0557C32.6966 15.807 32.0332 15.6516 31.3698 15.579C30.7064 15.5065 30.024 15.4754 29.3038 15.4754C27.3041 15.4754 25.4181 15.8381 23.6458 16.5635C21.8736 17.2889 20.3382 18.3252 19.0399 19.6724C17.732 21.0196 16.7084 22.6466 15.9597 24.543C15.211 26.4395 14.8319 28.5742 14.8319 30.9474C14.8319 31.4759 14.8604 32.0769 14.9078 32.7609C14.9646 33.4345 15.0499 34.1185 15.1731 34.8128C15.2963 35.5071 15.448 36.1703 15.628 36.8025C15.8081 37.445 16.0356 38.0046 16.3199 38.502L33.379 16.0557Z" fill="#EF4136"/>
</svg>
