<svg width="31" height="30" viewBox="0 0 31 30">
<path d="M15.407 29.8707C17.4293 29.8707 19.3297 29.4867 21.1084 28.7188C22.887 27.9508 24.4555 26.8842 25.8139 25.5189C27.1722 24.1536 28.2381 22.5811 29.0117 20.8014C29.7853 19.0216 30.1721 17.1261 30.1721 15.1147C30.1721 13.1034 29.7853 11.2079 29.0117 9.4281C28.2381 7.64836 27.1691 6.07586 25.8047 4.71059C24.4403 3.3453 22.8687 2.27868 21.0901 1.51073C19.3115 0.742754 17.411 0.358765 15.3887 0.358765C13.3786 0.358765 11.4843 0.742754 9.70563 1.51073C7.92699 2.27868 6.36154 3.3453 5.00927 4.71059C3.65703 6.07586 2.59411 7.64836 1.82053 9.4281C1.04695 11.2079 0.660156 13.1034 0.660156 15.1147C0.660156 17.1261 1.04695 19.0216 1.82053 20.8014C2.59411 22.5811 3.66007 24.1536 5.0184 25.5189C6.37676 26.8842 7.94526 27.9508 9.72389 28.7188C11.5025 29.4867 13.3969 29.8707 15.407 29.8707ZM15.407 27.0914C13.7502 27.0914 12.2 26.7836 10.7564 26.168C9.31272 25.5524 8.04574 24.6961 6.95542 23.599C5.86509 22.5019 5.01233 21.228 4.39712 19.7774C3.78191 18.3268 3.47431 16.7726 3.47431 15.1147C3.47431 13.4569 3.77887 11.9027 4.38799 10.4521C4.99711 9.00147 5.84683 7.72761 6.93716 6.6305C8.02748 5.53341 9.29445 4.67707 10.7381 4.06148C12.1817 3.44589 13.7319 3.13809 15.3887 3.13809C17.0577 3.13809 18.614 3.44589 20.0576 4.06148C21.5012 4.67707 22.7713 5.53341 23.8677 6.6305C24.9641 7.72761 25.823 9.00147 26.4443 10.4521C27.0656 11.9027 27.3763 13.4569 27.3763 15.1147C27.3763 16.7726 27.0686 18.3268 26.4534 19.7774C25.8382 21.228 24.9854 22.5019 23.8951 23.599C22.8048 24.6961 21.5348 25.5524 20.085 26.168C18.6353 26.7836 17.076 27.0914 15.407 27.0914Z"/>
<path d="M15.4072 23.3797C15.8945 23.3797 16.1381 23.1298 16.1381 22.63V21.6609C17.2345 21.5512 18.1665 21.1794 18.934 20.5455C19.7015 19.9116 20.0852 19.0339 20.0852 17.9125C20.0852 16.9129 19.7654 16.1083 19.1259 15.4988C18.4863 14.8893 17.5391 14.481 16.2843 14.2737L16.1381 14.2555V10.4522C16.5889 10.5497 16.9696 10.7356 17.2802 11.0099C17.5909 11.2841 17.8193 11.6529 17.9655 12.1161C18.1604 12.6281 18.4893 12.8841 18.9523 12.8841C19.2324 12.8841 19.4578 12.7957 19.6284 12.619C19.7989 12.4422 19.8842 12.2136 19.8842 11.9333C19.8842 11.8601 19.8781 11.787 19.8659 11.7139C19.8538 11.6407 19.8355 11.5615 19.8111 11.4761C19.6162 10.6838 19.1837 10.0377 18.5137 9.53793C17.8437 9.03815 17.0518 8.7334 16.1381 8.62368V7.61802C16.1381 7.13041 15.8945 6.8866 15.4072 6.8866C14.9077 6.8866 14.658 7.13041 14.658 7.61802V8.62368C13.5493 8.74559 12.6509 9.12957 11.9626 9.77565C11.2743 10.4217 10.9301 11.2445 10.9301 12.2441C10.9301 13.1827 11.2408 13.9385 11.8621 14.5115C12.4834 15.0844 13.391 15.5171 14.5849 15.8097L14.658 15.828V19.8324C14.061 19.7349 13.5981 19.5368 13.2691 19.2381C12.9402 18.9394 12.7088 18.5768 12.5748 18.1502C12.4773 17.882 12.3463 17.6839 12.1819 17.5559C12.0174 17.4279 11.8194 17.3639 11.588 17.3639C11.32 17.3639 11.0976 17.4523 10.921 17.6291C10.7443 17.8058 10.656 18.0283 10.656 18.2964C10.656 18.3818 10.6621 18.461 10.6743 18.5342C10.6865 18.6073 10.7047 18.6865 10.7291 18.7718C10.9484 19.5886 11.4235 20.2438 12.1544 20.7375C12.8854 21.2312 13.7199 21.5329 14.658 21.6426V22.63C14.658 23.1298 14.9077 23.3797 15.4072 23.3797ZM16.1381 16.212L16.4487 16.2851C17.0822 16.4679 17.5147 16.7026 17.7462 16.9891C17.9777 17.2755 18.0934 17.626 18.0934 18.0405C18.0934 18.5037 17.9381 18.8968 17.6274 19.2198C17.3168 19.5429 16.8203 19.7471 16.1381 19.8324V16.212ZM14.658 13.8532L14.5483 13.8166C13.9757 13.6338 13.5585 13.4052 13.2966 13.1309C13.0346 12.8567 12.9037 12.5245 12.9037 12.1344C12.9037 11.7443 13.056 11.3969 13.3605 11.0922C13.6651 10.7874 14.0976 10.5741 14.658 10.4522V13.8532Z"/>
</svg>
