<svg width="63" height="39" viewBox="0 0 63 39" fill="" xmlns="http://www.w3.org/2000/svg">
<path d="M7.20082 39H35.0722C34.771 38.3864 34.5639 37.701 34.451 36.9436C34.338 36.1862 34.338 35.4911 34.451 34.8584H7.25733C6.24071 34.8584 5.45473 34.5804 4.89938 34.0243C4.34403 33.4683 4.06636 32.6438 4.06636 31.5509V14.5531H45.2945C45.8593 13.7094 46.5841 13.0575 47.4689 12.5973C48.3537 12.1372 49.3044 11.9071 50.321 11.9071C51.0552 11.9071 51.7329 12.0221 52.3542 12.2522V7.219C52.3542 4.80308 51.7565 2.99593 50.5611 1.79754C49.3656 0.59918 47.5631 0 45.1534 0H7.20082C4.80995 0 3.0121 0.59918 1.80725 1.79754C0.602418 2.99593 0 4.80308 0 7.219V31.7809C0 34.1969 0.602418 36.0041 1.80725 37.2024C3.0121 38.4008 4.80995 39 7.20082 39ZM4.06636 9.37607V7.44907C4.06636 6.35615 4.34403 5.53167 4.89938 4.97563C5.45473 4.41959 6.24071 4.14157 7.25733 4.14157H45.0969C46.1135 4.14157 46.8995 4.41959 47.4548 4.97563C48.0102 5.53167 48.2878 6.35615 48.2878 7.44907V9.37607H4.06636ZM10.2506 30.7743H15.6723C16.3313 30.7743 16.8584 30.573 17.2537 30.1704C17.6491 29.7677 17.8467 29.25 17.8467 28.6172V24.4469C17.8467 23.8141 17.6491 23.2964 17.2537 22.8938C16.8584 22.4911 16.3313 22.2898 15.6723 22.2898H10.2506C9.61051 22.2898 9.08811 22.4911 8.68336 22.8938C8.27861 23.2964 8.07623 23.8141 8.07623 24.4469V28.6172C8.07623 29.25 8.27861 29.7677 8.68336 30.1704C9.08811 30.573 9.61051 30.7743 10.2506 30.7743Z" fill=""/>
<path d="M40.6634 39H59.9221C60.8632 39 61.6116 38.7076 62.1671 38.1228C62.7223 37.538 62.9999 36.8046 62.9999 35.9225C62.9999 35.4048 62.8588 34.8967 62.5766 34.3982L52.9192 16.8539C52.6365 16.317 52.2599 15.9192 51.7893 15.6604C51.3187 15.4015 50.8292 15.2721 50.3209 15.2721C49.7938 15.2721 49.2902 15.4015 48.8102 15.6604C48.3301 15.9192 47.9489 16.317 47.6665 16.8539L38.0654 34.3982C37.783 34.8967 37.6418 35.4048 37.6418 35.9225C37.6418 36.8046 37.9148 37.538 38.4608 38.1228C39.0067 38.7076 39.7409 39 40.6634 39Z" fill=""/>
<path d="M50.321 30.0553C49.9068 30.0553 49.568 29.9259 49.3044 29.667C49.0408 29.4082 48.8997 29.0774 48.8808 28.6748L48.6832 22.3761C48.6644 21.8967 48.8055 21.5037 49.1067 21.1969C49.408 20.8901 49.8127 20.7367 50.321 20.7367C50.8105 20.7367 51.2058 20.8901 51.507 21.1969C51.8082 21.5037 51.9589 21.8967 51.9589 22.3761L51.7612 28.6748C51.7424 29.0774 51.6012 29.4082 51.3376 29.667C51.0741 29.9259 50.7352 30.0553 50.321 30.0553ZM50.321 35.5774C49.7939 35.5774 49.3374 35.3857 48.9515 35.0022C48.5655 34.6187 48.3726 34.149 48.3726 33.5929C48.3726 33.056 48.5655 32.5911 48.9515 32.198C49.3374 31.8049 49.7939 31.6084 50.321 31.6084C50.867 31.6084 51.3282 31.8049 51.7047 32.198C52.081 32.5911 52.2692 33.056 52.2692 33.5929C52.2692 34.149 52.081 34.6187 51.7047 35.0022C51.3282 35.3857 50.867 35.5774 50.321 35.5774Z" fill="#EF4136"/>
</svg>
