<svg width="29" height="18" viewBox="0 0 29 18" fill="none" xmlns="http://www.w3.org/2000/svg">
<path d="M2.19995 14.6776C2.19995 15.1714 2.44686 15.4183 2.94067 15.4183H25.992C26.4858 15.4183 26.7327 15.1714 26.7327 14.6776V3.24072C26.7327 2.74691 26.4858 2.5 25.992 2.5H2.94067C2.44686 2.5 2.19995 2.74691 2.19995 3.24072V14.6776ZM3.50361 13.8331V4.08515C3.50361 3.88764 3.59744 3.78888 3.7851 3.78888H25.1476C25.3353 3.78888 25.4291 3.88764 25.4291 4.08515V13.8331C25.4291 14.0306 25.3353 14.1294 25.1476 14.1294H3.7851C3.59744 14.1294 3.50361 14.0306 3.50361 13.8331ZM14.4071 15.4183C15.2663 15.4183 16.0367 15.1491 16.7182 14.6109C17.3996 14.0726 17.9379 13.3195 18.333 12.3517C18.728 11.3838 18.9255 10.248 18.9255 8.94434C18.9255 7.65053 18.728 6.51968 18.333 5.55179C17.9379 4.58392 17.3996 3.83333 16.7182 3.30001C16.0367 2.76667 15.2663 2.5 14.4071 2.5C13.5775 2.5 12.8318 2.76667 12.1701 3.30001C11.5084 3.83333 10.9849 4.58392 10.5998 5.55179C10.2146 6.51968 10.022 7.65053 10.022 8.94434C10.022 10.248 10.2146 11.3838 10.5998 12.3517C10.9849 13.3195 11.5084 14.0726 12.1701 14.6109C12.8318 15.1491 13.5775 15.4183 14.4071 15.4183ZM14.4071 13.8924C13.8738 13.8924 13.3874 13.6874 12.9479 13.2776C12.5084 12.8677 12.1602 12.2924 11.9035 11.5517C11.6467 10.811 11.5183 9.94184 11.5183 8.94434C11.5183 7.9567 11.6467 7.09499 11.9035 6.3592C12.1602 5.62342 12.5084 5.05058 12.9479 4.64071C13.3874 4.23083 13.8738 4.0259 14.4071 4.0259C14.97 4.0259 15.4811 4.23083 15.9404 4.64071C16.3996 5.05058 16.7626 5.62342 17.0293 6.3592C17.2959 7.09499 17.4293 7.9567 17.4293 8.94434C17.4293 9.94184 17.2959 10.811 17.0293 11.5517C16.7626 12.2924 16.3996 12.8677 15.9404 13.2776C15.4811 13.6874 14.97 13.8924 14.4071 13.8924Z" fill="#231F20"/>
<rect x="0.6" y="0.6" width="27.8" height="16.8" stroke="#231F20" stroke-width="1.2"/>
</svg>
