<svg width="31" height="31" viewBox="0 0 31 31" fill="none" xmlns="http://www.w3.org/2000/svg">
<path d="M0 12.6466C0 14.3832 0.331289 16.017 0.993867 17.5481C1.65641 19.0792 2.57328 20.4247 3.74449 21.5847C4.9157 22.7446 6.27095 23.6494 7.81023 24.2989C9.34951 24.9485 11.0026 25.2732 12.7694 25.2732C14.1213 25.2732 15.413 25.0744 16.6444 24.6767C17.8759 24.279 19.0069 23.7222 20.0375 23.0064L27.5065 30.4234C27.7206 30.6222 27.9549 30.768 28.2092 30.8608C28.4635 30.9536 28.7245 31 28.9922 31C29.5812 31 30.063 30.8078 30.4378 30.4234C30.8126 30.0389 31 29.5551 31 28.9718C31 28.6934 30.9498 28.4316 30.8494 28.1863C30.749 27.9411 30.6118 27.7257 30.4378 27.5401L23.0091 20.1629C23.7988 19.1157 24.4145 17.9524 24.8562 16.6732C25.2979 15.394 25.5188 14.0518 25.5188 12.6466C25.5188 10.8967 25.1875 9.25957 24.5249 7.73507C23.8624 6.2106 22.9488 4.86839 21.7843 3.70845C20.6198 2.54853 19.2646 1.64048 17.7186 0.984288C16.1726 0.328096 14.5229 0 12.7694 0C11.0026 0 9.34951 0.328096 7.81023 0.984288C6.27095 1.64048 4.9157 2.54853 3.74449 3.70845C2.57328 4.86839 1.65641 6.2106 0.993867 7.73507C0.331289 9.25957 0 10.8967 0 12.6466ZM3.09197 12.6466C3.09197 11.3209 3.33959 10.0782 3.83483 8.91821C4.3301 7.75827 5.02278 6.74085 5.91287 5.86594C6.80299 4.99101 7.83366 4.305 9.00487 3.8079C10.176 3.31077 11.4309 3.06221 12.7694 3.06221C14.108 3.06221 15.3595 3.31077 16.524 3.8079C17.6885 4.305 18.7158 4.99101 19.6059 5.86594C20.496 6.74085 21.192 7.75827 21.694 8.91821C22.1959 10.0782 22.4469 11.3209 22.4469 12.6466C22.4469 13.9722 22.1959 15.2117 21.694 16.365C21.192 17.5183 20.496 18.5357 19.6059 19.4172C18.7158 20.2988 17.6885 20.9881 16.524 21.4853C15.3595 21.9824 14.108 22.2309 12.7694 22.2309C11.4309 22.2309 10.176 21.9824 9.00487 21.4853C7.83366 20.9881 6.80299 20.2988 5.91287 19.4172C5.02278 18.5357 4.3301 17.5183 3.83483 16.365C3.33959 15.2117 3.09197 13.9722 3.09197 12.6466Z" fill="#313131"/>
</svg>
