<svg width="29" height="29" viewBox="0 0 29 29" fill="none" xmlns="http://www.w3.org/2000/svg">
<path d="M13.1382 29H15.8447C16.3928 29 16.8667 28.8456 17.2664 28.5367C17.6661 28.2278 17.9287 27.816 18.0543 27.3012L18.6196 24.8302L18.9279 24.7272L21.052 26.0485C21.5087 26.3345 21.9912 26.4432 22.4994 26.3746C23.0076 26.3059 23.4501 26.0771 23.8269 25.6882L25.7112 23.8178C26.0994 23.4288 26.325 22.9826 26.3878 22.4793C26.4506 21.9759 26.3392 21.5012 26.0537 21.055L24.7176 18.9101L24.8204 18.6527L27.287 18.0864C27.8009 17.9491 28.2149 17.6803 28.5289 17.2799C28.843 16.8795 29 16.4105 29 15.8728V13.2302C29 12.6925 28.8458 12.2206 28.5375 11.8145C28.2292 11.4084 27.8123 11.1424 27.287 11.0166L24.8547 10.416L24.7348 10.1414L26.0708 7.99645C26.3563 7.55029 26.4677 7.07554 26.4049 6.5722C26.3421 6.06885 26.1165 5.61698 25.7283 5.21658L23.8441 3.34616C23.4672 2.95722 23.0276 2.73128 22.5251 2.66835C22.0226 2.60542 21.543 2.71124 21.0862 2.9858L18.945 4.28996L18.6196 4.16985L18.0543 1.69882C17.9287 1.18402 17.6661 0.772191 17.2664 0.46333C16.8667 0.154444 16.3928 0 15.8447 0H13.1382C12.5901 0 12.119 0.154444 11.725 0.46333C11.3311 0.772191 11.0713 1.18402 10.9456 1.69882L10.3804 4.16985L10.0378 4.28996L7.89663 2.9858C7.43985 2.71124 6.96309 2.60542 6.46634 2.66835C5.96957 2.73128 5.52706 2.95722 5.13881 3.34616L3.2717 5.21658C2.88345 5.61698 2.65791 6.06885 2.5951 6.5722C2.53228 7.07554 2.64361 7.55029 2.9291 7.99645L4.24807 10.1414L4.12817 10.416L1.6958 11.0166C1.18192 11.1424 0.770821 11.4084 0.462493 11.8145C0.154164 12.2206 0 12.6925 0 13.2302V15.8728C0 16.4105 0.157019 16.8795 0.471056 17.2799C0.785093 17.6803 1.19334 17.9491 1.6958 18.0864L4.16244 18.6527L4.26519 18.9101L2.94626 21.055C2.64933 21.5012 2.53513 21.9759 2.60366 22.4793C2.67218 22.9826 2.90057 23.4288 3.28882 23.8178L5.15593 25.6882C5.54421 26.0771 5.98957 26.3059 6.49202 26.3746C6.99447 26.4432 7.4741 26.3345 7.9309 26.0485L10.0721 24.7272L10.3804 24.8302L10.9456 27.3012C11.0713 27.816 11.3311 28.2278 11.725 28.5367C12.119 28.8456 12.5901 29 13.1382 29ZM13.378 26.6148C13.2181 26.6148 13.1268 26.5404 13.104 26.3917L12.2646 23.0284C11.8307 22.914 11.4196 22.7767 11.0313 22.6166C10.643 22.4564 10.3005 22.2734 10.0036 22.0675L7.04016 23.9036C6.92596 23.9836 6.80606 23.9665 6.68044 23.8521L5.13881 22.2905C5.02461 22.199 5.01319 22.0789 5.10454 21.9302L6.90314 18.9787C6.74326 18.6927 6.57768 18.3552 6.40639 17.9663C6.23508 17.5773 6.09233 17.1655 5.97816 16.7308L2.60366 15.9071C2.45519 15.8957 2.38096 15.8042 2.38096 15.6326V13.4361C2.38096 13.276 2.45519 13.1787 2.60366 13.1444L5.961 12.3379C6.0752 11.8688 6.22367 11.4341 6.40639 11.0337C6.58909 10.6333 6.74325 10.3073 6.86886 10.0556L5.08742 7.12131C4.99607 6.97258 5.00177 6.84103 5.10454 6.72665L6.66332 5.1994C6.77752 5.09645 6.90314 5.0793 7.04016 5.14795L9.96928 6.93256C10.2662 6.74951 10.6202 6.57219 11.0313 6.40059C11.4424 6.229 11.8592 6.086 12.2817 5.9716L13.104 2.60829C13.1268 2.45957 13.2181 2.3852 13.378 2.3852H15.622C15.7818 2.3852 15.8732 2.45957 15.896 2.60829L16.7182 6.00593C17.1636 6.12034 17.5776 6.26048 17.9601 6.42635C18.3427 6.59223 18.6881 6.76668 18.9964 6.94971L21.9598 5.14795C22.0968 5.0793 22.2225 5.09645 22.3367 5.1994L23.8954 6.72665C23.9982 6.84103 24.0039 6.97258 23.9126 7.12131L22.114 10.0556C22.2396 10.3073 22.3966 10.6333 22.585 11.0337C22.7735 11.4341 22.9191 11.8688 23.0218 12.3379L26.3963 13.1444C26.5334 13.1787 26.6019 13.276 26.6019 13.4361V15.6326C26.6019 15.8042 26.5334 15.8957 26.3963 15.9071L23.0047 16.7308C22.9019 17.1655 22.7649 17.5773 22.5936 17.9663C22.4223 18.3552 22.251 18.6927 22.0797 18.9787L23.8954 21.9302C23.9754 22.0789 23.964 22.199 23.8612 22.2905L22.3195 23.8521C22.1939 23.9665 22.074 23.9836 21.9598 23.9036L18.9793 22.0675C18.6824 22.2734 18.3427 22.4564 17.9601 22.6166C17.5776 22.7767 17.1636 22.914 16.7182 23.0284L15.896 26.3917C15.8732 26.5404 15.7818 26.6148 15.622 26.6148H13.378ZM14.4914 19.6308C15.4278 19.6308 16.2843 19.3991 17.0608 18.9358C17.8374 18.4725 18.4569 17.8519 18.9194 17.074C19.3818 16.2961 19.6131 15.4381 19.6131 14.5C19.6131 13.5619 19.3818 12.7097 18.9194 11.9432C18.4569 11.1767 17.8374 10.5618 17.0608 10.0985C16.2843 9.63521 15.4278 9.40354 14.4914 9.40354C13.555 9.40354 12.7014 9.63521 11.9306 10.0985C11.1598 10.5618 10.5403 11.1767 10.0721 11.9432C9.60385 12.7097 9.36974 13.5619 9.36974 14.5C9.36974 15.4381 9.60385 16.2961 10.0721 17.074C10.5403 17.8519 11.1598 18.4725 11.9306 18.9358C12.7014 19.3991 13.555 19.6308 14.4914 19.6308ZM14.4914 17.2627C13.989 17.2627 13.5322 17.1369 13.1211 16.8852C12.71 16.6335 12.3817 16.2989 12.1362 15.8814C11.8906 15.4638 11.7679 15.0034 11.7679 14.5C11.7679 14.0081 11.8906 13.5534 12.1362 13.1358C12.3817 12.7182 12.71 12.3865 13.1211 12.1405C13.5322 11.8946 13.989 11.7716 14.4914 11.7716C14.9825 11.7716 15.4335 11.8946 15.8447 12.1405C16.2558 12.3865 16.5841 12.7182 16.8296 13.1358C17.0751 13.5534 17.1979 14.0081 17.1979 14.5C17.1979 15.0034 17.0751 15.4638 16.8296 15.8814C16.5841 16.2989 16.2558 16.6335 15.8447 16.8852C15.4335 17.1369 14.9825 17.2627 14.4914 17.2627Z"/>
</svg>
