<svg width="36" height="26" viewBox="0 0 58 50" fill="" xmlns="http://www.w3.org/2000/svg">
<path d="M29.0001 27.1589C29.9208 27.1589 30.864 27.044 31.8297 26.814C32.7955 26.5841 33.847 26.2221 34.9843 25.7282L55.753 16.7859C56.5112 16.4623 57.0752 16.0109 57.4449 15.4318C57.815 14.8527 58 14.2395 58 13.5923C58 12.945 57.815 12.3275 57.4449 11.7399C57.0752 11.1523 56.5112 10.6966 55.753 10.373L34.9843 1.43077C33.847 0.953849 32.7955 0.596153 31.8297 0.357691C30.864 0.119228 29.9208 0 29.0001 0C28.0795 0 27.1363 0.119228 26.1705 0.357691C25.2047 0.596153 24.1532 0.953849 23.016 1.43077L2.24747 10.373C1.48929 10.6966 0.925162 11.1523 0.555093 11.7399C0.185031 12.3275 0 12.945 0 13.5923C0 14.2395 0.185031 14.8527 0.555093 15.4318C0.925162 16.0109 1.48929 16.4623 2.24747 16.7859L23.016 25.7282C24.1532 26.2221 25.2047 26.5841 26.1705 26.814C27.1363 27.044 28.0795 27.1589 29.0001 27.1589ZM29.0001 23.5309C28.3142 23.5309 27.6102 23.4415 26.8881 23.2627C26.166 23.0838 25.3627 22.7985 24.4781 22.4068L5.30719 14.2054C4.96422 14.0521 4.79274 13.8477 4.79274 13.5923C4.79274 13.3197 4.96422 13.1068 5.30719 12.9535L24.4781 4.75216C25.3627 4.36042 26.166 4.07512 26.8881 3.89628C27.6102 3.71743 28.3142 3.628 29.0001 3.628C29.7041 3.628 30.4127 3.71743 31.1257 3.89628C31.8388 4.07512 32.6376 4.36042 33.5221 4.75216L52.693 12.9535C53.0542 13.1068 53.2348 13.3197 53.2348 13.5923C53.2348 13.8477 53.0542 14.0521 52.693 14.2054L33.5221 22.4068C32.6376 22.7985 31.8388 23.0838 31.1257 23.2627C30.4127 23.4415 29.7041 23.5309 29.0001 23.5309ZM8.015 28.6408C8.015 30.2759 8.51142 31.7876 9.50425 33.1758C10.4971 34.564 11.9186 35.7818 13.769 36.8293C15.6193 37.8769 17.8306 38.6902 20.403 39.2693C22.9753 39.8484 25.8411 40.138 29.0001 40.138C32.1592 40.138 35.0249 39.8484 37.5973 39.2693C40.1697 38.6902 42.381 37.8769 44.2313 36.8293C46.0816 35.7818 47.5031 34.564 48.496 33.1758C49.4888 31.7876 49.9853 30.2759 49.9853 28.6408V17.9612H46.0861V28.6408C46.0861 29.7479 45.6799 30.7912 44.8676 31.7706C44.0553 32.75 42.9 33.6059 41.4017 34.3383C39.9034 35.0707 38.1072 35.6456 36.0132 36.0629C33.9192 36.4802 31.5815 36.6888 29.0001 36.6888C26.4368 36.6888 24.1036 36.4802 22.0006 36.0629C19.8975 35.6456 18.0969 35.0707 16.5986 34.3383C15.1003 33.6059 13.945 32.75 13.1327 31.7706C12.3203 30.7912 11.9142 29.7479 11.9142 28.6408V17.9612H8.015V28.6408ZM29.1085 15.9427C30.2277 15.9427 31.2746 15.7256 32.2494 15.2913C33.2242 14.8569 33.7116 14.2906 33.7116 13.5923C33.7116 12.8939 33.2242 12.3318 32.2494 11.906C31.2746 11.4802 30.2277 11.2672 29.1085 11.2672C27.9712 11.2672 26.9152 11.4802 25.9404 11.906C24.9656 12.3318 24.4781 12.8939 24.4781 13.5923C24.4781 14.2906 24.9656 14.8569 25.9404 15.2913C26.9152 15.7256 27.9712 15.9427 29.1085 15.9427ZM16.4632 21.3337L28.7294 15.023L27.4026 12.698L13.3493 19.7752L16.4632 21.3337ZM13.3493 41.3388H16.4632V21.3337L13.3493 19.9029V41.3388ZM11.6704 41.9775V47.2407C11.6704 48.0583 11.9367 48.7225 12.4693 49.2335C13.0018 49.7445 13.7103 50 14.5948 50H15.1905C16.0751 50 16.7836 49.7445 17.3161 49.2335C17.8486 48.7225 18.1149 48.0583 18.1149 47.2407V41.9775C18.1149 41.16 17.8486 40.4957 17.3161 39.9847C16.7836 39.4737 16.0751 39.2182 15.1905 39.2182H14.5948C13.7103 39.2182 13.0018 39.4737 12.4693 39.9847C11.9367 40.4957 11.6704 41.16 11.6704 41.9775Z" fill=""/>
</svg>
