<svg width="63" height="63" viewBox="0 0 63 63" fill="none" xmlns="http://www.w3.org/2000/svg">
<path d="M31.4804 63C35.7975 63 39.8545 62.1803 43.6514 60.5409C47.4483 58.9015 50.7966 56.6245 53.6963 53.71C56.596 50.7955 58.8715 47.4386 60.5229 43.6394C62.1743 39.8401 63 35.7937 63 31.5C63 27.2063 62.1743 23.1599 60.5229 19.3606C58.8715 15.5613 56.5894 12.2044 53.6767 9.28997C50.7641 6.37544 47.4093 4.0985 43.6124 2.45913C39.8155 0.819712 35.7585 0 31.4415 0C27.1505 0 23.1065 0.819712 19.3096 2.45913C15.5127 4.0985 12.1709 6.37544 9.28418 9.28997C6.39751 12.2044 4.12847 15.5613 2.47708 19.3606C0.825694 23.1599 0 27.2063 0 31.5C0 35.7937 0.825694 39.8401 2.47708 43.6394C4.12847 47.4386 6.404 50.7955 9.30367 53.71C12.2034 56.6245 15.5517 58.9015 19.3486 60.5409C23.1455 62.1803 27.1895 63 31.4804 63Z" fill="#0CA409"/>
<path d="M28.0477 46.5671C27.4496 46.5671 26.8969 46.4305 26.3898 46.1572C25.8827 45.884 25.3951 45.4481 24.927 44.8496L17.6713 35.7548C17.1251 35.0522 16.8521 34.2975 16.8521 33.4908C16.8521 32.7102 17.1186 32.0336 17.6518 31.4611C18.1848 30.8886 18.8545 30.6023 19.6607 30.6023C20.1548 30.6023 20.6099 30.7064 21.026 30.9146C21.4421 31.1228 21.8582 31.5131 22.2743 32.0856L27.8916 39.6191L40.3356 19.4388C40.9858 18.3718 41.818 17.8384 42.8322 17.8384C43.5864 17.8384 44.269 18.0726 44.8802 18.5411C45.4914 19.0095 45.797 19.66 45.797 20.4927C45.797 20.883 45.6994 21.2799 45.5043 21.6832C45.3093 22.0866 45.1077 22.4704 44.8997 22.8347L30.9734 44.8496C30.2712 45.9946 29.296 46.5671 28.0477 46.5671Z" fill="white"/>
</svg>
