<svg width="36" height="26" viewBox="0 0 36 26" >
<path d="M4.71925 24.0985H22.436C22.1813 23.7483 21.9505 23.3821 21.7435 23.0001C21.5366 22.6181 21.3588 22.2148 21.2103 21.7903H16.5782V17.1264H20.9715C21.1625 16.3305 21.4756 15.5664 21.9107 14.8342H16.5782V10.1543H27.8958V10.8547C28.2991 10.8122 28.6838 10.791 29.0499 10.791C29.416 10.791 29.7954 10.8122 30.1881 10.8547V4.90135C30.1881 3.56425 29.8511 2.56142 29.1772 1.89286C28.5034 1.22429 27.4873 0.890015 26.1289 0.890015H4.71925C3.36091 0.890015 2.34481 1.22429 1.67095 1.89286C0.997086 2.56142 0.660156 3.56425 0.660156 4.90135V20.0871C0.660156 21.4242 0.997086 22.4271 1.67095 23.0956C2.34481 23.7642 3.36091 24.0985 4.71925 24.0985ZM2.95236 14.8342V10.1543H14.286V14.8342H2.95236ZM2.95236 7.86209V5.01278C2.95236 4.4079 3.10888 3.95423 3.42193 3.65179C3.73498 3.34935 4.17803 3.19813 4.7511 3.19813H14.286V7.86209H2.95236ZM2.95236 19.9757V17.1264H14.286V21.7903H4.7511C4.17803 21.7903 3.73498 21.6365 3.42193 21.3287C3.10888 21.021 2.95236 20.57 2.95236 19.9757ZM16.5782 7.86209V3.19813H26.0971C26.6702 3.19813 27.1132 3.34935 27.4263 3.65179C27.7393 3.95423 27.8958 4.4079 27.8958 5.01278V7.86209H16.5782Z"/>
<path d="M29.026 25.4832C30.1828 25.4832 31.2494 25.1914 32.2256 24.6077C33.2019 24.0241 33.9845 23.2467 34.5735 22.2757C35.1624 21.3047 35.4569 20.2356 35.4569 19.0683C35.4569 17.8903 35.1651 16.8159 34.5813 15.8449C33.9978 14.8739 33.2205 14.0992 32.2494 13.5208C31.2784 12.9425 30.2039 12.6533 29.026 12.6533C27.8587 12.6533 26.7896 12.9425 25.8186 13.5208C24.8476 14.0992 24.0702 14.8739 23.4866 15.8449C22.9029 16.8159 22.6111 17.8903 22.6111 19.0683C22.6111 20.2462 22.9029 21.3207 23.4866 22.2917C24.0702 23.2627 24.8476 24.0373 25.8186 24.6157C26.7896 25.194 27.8587 25.4832 29.026 25.4832ZM29.026 20.087C28.7501 20.087 28.5114 19.9862 28.3097 19.7846C28.1081 19.583 28.0073 19.3442 28.0073 19.0683C28.0073 18.7924 28.1081 18.5536 28.3097 18.352C28.5114 18.1503 28.7501 18.0495 29.026 18.0495C29.3019 18.0495 29.5407 18.1503 29.7423 18.352C29.944 18.5536 30.0448 18.7924 30.0448 19.0683C30.0448 19.3442 29.944 19.583 29.7423 19.7846C29.5407 19.9862 29.3019 20.087 29.026 20.087ZM25.4763 20.087C25.2004 20.087 24.9643 19.9862 24.768 19.7846C24.5716 19.583 24.4735 19.3442 24.4735 19.0683C24.4735 18.7924 24.5716 18.5536 24.768 18.352C24.9643 18.1503 25.2004 18.0495 25.4763 18.0495C25.7628 18.0495 26.0043 18.1503 26.2006 18.352C26.3969 18.5536 26.4951 18.7924 26.4951 19.0683C26.4951 19.3442 26.3969 19.583 26.2006 19.7846C26.0043 19.9862 25.7628 20.087 25.4763 20.087ZM32.5598 20.087C32.284 20.087 32.0452 19.9862 31.8435 19.7846C31.6419 19.583 31.541 19.3442 31.541 19.0683C31.541 18.7924 31.6419 18.5536 31.8435 18.352C32.0452 18.1503 32.284 18.0495 32.5598 18.0495C32.8358 18.0495 33.0745 18.1503 33.276 18.352C33.4777 18.5536 33.5732 18.7924 33.5625 19.0683C33.5625 19.3442 33.4644 19.583 33.2682 19.7846C33.0719 19.9862 32.8358 20.087 32.5598 20.087Z" />
</svg>
