<svg width="35" height="30" viewBox="0 0 35 30" >
<path d="M17.646 16.4657C18.1926 16.4657 18.7525 16.3978 19.3258 16.2621C19.8991 16.1264 20.5233 15.9127 21.1984 15.6212L33.5274 10.3431C33.9775 10.1521 34.3123 9.88568 34.5318 9.54388C34.7514 9.20205 34.8613 8.84013 34.8613 8.45811C34.8613 8.07607 34.7514 7.71163 34.5318 7.36477C34.3123 7.01792 33.9775 6.74899 33.5274 6.55798L21.1984 1.27992C20.5233 0.998424 19.8991 0.787298 19.3258 0.646548C18.7525 0.505798 18.1926 0.435425 17.646 0.435425C17.0995 0.435425 16.5396 0.505798 15.9663 0.646548C15.393 0.787298 14.7688 0.998424 14.0937 1.27992L1.76483 6.55798C1.31475 6.74899 0.979869 7.01792 0.760185 7.36477C0.540504 7.71163 0.430664 8.07607 0.430664 8.45811C0.430664 8.84013 0.540504 9.20205 0.760185 9.54388C0.979869 9.88568 1.31475 10.1521 1.76483 10.3431L14.0937 15.6212C14.7688 15.9127 15.393 16.1264 15.9663 16.2621C16.5396 16.3978 17.0995 16.4657 17.646 16.4657ZM17.646 14.3243C17.2388 14.3243 16.8209 14.2715 16.3923 14.166C15.9636 14.0604 15.4867 13.892 14.9617 13.6608L3.58118 8.82001C3.37758 8.72954 3.27578 8.60891 3.27578 8.45811C3.27578 8.29724 3.37758 8.17156 3.58118 8.08107L14.9617 3.24033C15.4867 3.00911 15.9636 2.84072 16.3923 2.73516C16.8209 2.6296 17.2388 2.57681 17.646 2.57681C18.064 2.57681 18.4846 2.6296 18.9079 2.73516C19.3312 2.84072 19.8053 3.00911 20.3304 3.24033L31.7109 8.08107C31.9253 8.17156 32.0325 8.29724 32.0325 8.45811C32.0325 8.60891 31.9253 8.72954 31.7109 8.82001L20.3304 13.6608C19.8053 13.892 19.3312 14.0604 18.9079 14.166C18.4846 14.2715 18.064 14.3243 17.646 14.3243ZM5.18862 17.3403C5.18862 18.3055 5.48331 19.1977 6.07268 20.0171C6.66206 20.8364 7.50595 21.5553 8.60435 22.1735C9.70275 22.7918 11.0155 23.2719 12.5425 23.6137C14.0696 23.9555 15.7707 24.1264 17.646 24.1264C19.5214 24.1264 21.2226 23.9555 22.7496 23.6137C24.2766 23.2719 25.5894 22.7918 26.6878 22.1735C27.7861 21.5553 28.63 20.8364 29.2194 20.0171C29.8088 19.1977 30.1035 18.3055 30.1035 17.3403V11.0368H27.7888V17.3403C27.7888 17.9938 27.5477 18.6096 27.0655 19.1877C26.5833 19.7657 25.8974 20.2709 25.008 20.7032C24.1186 21.1355 23.0523 21.4748 21.8092 21.7211C20.5662 21.9675 19.1785 22.0906 17.646 22.0906C16.1244 22.0906 14.7393 21.9675 13.4909 21.7211C12.2425 21.4748 11.1735 21.1355 10.2841 20.7032C9.39467 20.2709 8.70884 19.7657 8.22663 19.1877C7.7444 18.6096 7.50328 17.9938 7.50328 17.3403V11.0368H5.18862V17.3403ZM17.7104 9.84546C18.3748 9.84546 18.9963 9.71728 19.5749 9.46092C20.1536 9.20456 20.4429 8.87029 20.4429 8.45811C20.4429 8.04591 20.1536 7.71414 19.5749 7.4628C18.9963 7.21147 18.3748 7.0858 17.7104 7.0858C17.0352 7.0858 16.4084 7.21147 15.8297 7.4628C15.251 7.71414 14.9617 8.04591 14.9617 8.45811C14.9617 8.87029 15.251 9.20456 15.8297 9.46092C16.4084 9.71728 17.0352 9.84546 17.7104 9.84546ZM10.2037 13.0274L17.4853 9.30258L16.6977 7.9303L8.35521 12.1075L10.2037 13.0274ZM8.35521 24.8352H10.2037V13.0274L8.35521 12.1829V24.8352ZM7.3586 25.2122V28.3187C7.3586 28.8013 7.51667 29.1934 7.83281 29.495C8.14892 29.7966 8.56953 29.9474 9.09462 29.9474H9.44825C9.97334 29.9474 10.3939 29.7966 10.7101 29.495C11.0262 29.1934 11.1842 28.8013 11.1842 28.3187V25.2122C11.1842 24.7296 11.0262 24.3376 10.7101 24.036C10.3939 23.7343 9.97334 23.5835 9.44825 23.5835H9.09462C8.56953 23.5835 8.14892 23.7343 7.83281 24.036C7.51667 24.3376 7.3586 24.7296 7.3586 25.2122Z"/>
</svg>
