<svg width="30" height="30" viewBox="0 0 81 87" fill="" xmlns="http://www.w3.org/2000/svg">
<path d="M12.4512 86.1328H67.7735C71.9401 86.1328 75.057 85.1155 77.124 83.081C79.1911 81.0465 80.2246 77.9785 80.2246 73.8769V34.8144C80.2246 30.7129 79.1911 27.6448 77.124 25.6103C75.057 23.5758 71.9401 22.5586 67.7735 22.5586H12.4512C8.28451 22.5586 5.16765 23.5758 3.10058 25.6103C1.03353 27.6448 0 30.7129 0 34.8144V73.8769C0 77.9785 1.03353 81.0465 3.10058 83.081C5.16765 85.1155 8.28451 86.1328 12.4512 86.1328ZM12.5489 79.1015C10.791 79.1015 9.43195 78.6295 8.47168 77.6855C7.51141 76.7415 7.03128 75.3418 7.03128 73.4863V35.205C7.03128 33.3495 7.51141 31.9498 8.47168 31.0058C9.43195 30.0618 10.791 29.5898 12.5489 29.5898H67.6758C69.4336 29.5898 70.7926 30.0618 71.753 31.0058C72.7132 31.9498 73.1934 33.3495 73.1934 35.205V73.4863C73.1934 75.3418 72.7132 76.7415 71.753 77.6855C70.7926 78.6295 69.4336 79.1015 67.6758 79.1015H12.5489ZM8.00778 16.6503H72.3145C71.9564 14.6321 71.2565 13.1022 70.2149 12.0605C69.1732 11.0188 67.5619 10.498 65.3809 10.498H14.9414C12.7278 10.498 11.1002 11.0188 10.0586 12.0605C9.01691 13.1022 8.33331 14.6321 8.00778 16.6503ZM16.0156 5.56641H64.2578C64.1276 3.71094 63.5335 2.31933 62.4756 1.3916C61.4176 0.463868 59.8796 0 57.8614 0H22.4121C20.3939 0 18.8639 0.463868 17.8223 1.3916C16.7806 2.31933 16.1784 3.71094 16.0156 5.56641ZM16.3086 82.5195H63.916C63.1673 79.2643 61.6699 76.3916 59.4239 73.9013C57.1777 71.4111 54.3945 69.4743 51.0742 68.0908C47.7539 66.7073 44.1081 66.0156 40.1367 66.0156C36.1328 66.0156 32.4707 66.7073 29.1504 68.0908C25.83 69.4743 23.0468 71.4111 20.8008 73.9013C18.5547 76.3916 17.0573 79.2643 16.3086 82.5195ZM40.1367 60.205C42.3503 60.205 44.3604 59.6354 46.167 58.4961C47.9736 57.3568 49.4059 55.7943 50.4639 53.8086C51.5218 51.8229 52.0508 49.593 52.0508 47.1191C52.0508 44.7754 51.5218 42.6351 50.4639 40.6982C49.4059 38.7613 47.9736 37.2151 46.167 36.0595C44.3604 34.9039 42.3503 34.3261 40.1367 34.3261C37.8906 34.3261 35.8642 34.9039 34.0576 36.0595C32.251 37.2151 30.8187 38.7613 29.7608 40.6982C28.7028 42.6351 28.1739 44.7754 28.1739 47.1191C28.1739 49.593 28.711 51.8147 29.7852 53.7841C30.8594 55.7535 32.2917 57.3079 34.0821 58.4472C35.8724 59.5865 37.8906 60.1725 40.1367 60.205Z" fill=""/>
</svg>
