<svg width="20" height="20" viewBox="0 0 20 20" fill="none" xmlns="http://www.w3.org/2000/svg">
<path d="M0.435409 19.5549C0.72566 19.8578 1.08849 20.0061 1.52389 19.9998C1.9593 19.9935 2.32212 19.8452 2.61238 19.5549L9.99519 12.1532L17.3969 19.5549C17.6872 19.8452 18.0468 19.9935 18.4759 19.9998C18.905 20.0061 19.2647 19.8578 19.555 19.5549C19.8579 19.2647 20.0061 18.905 19.9998 18.4759C19.9935 18.0468 19.8452 17.6872 19.555 17.3969L12.1532 9.99516L19.555 2.61238C19.8452 2.30949 19.9935 1.9435 19.9998 1.5144C20.0061 1.08533 19.8579 0.725656 19.555 0.435378C19.2647 0.145126 18.905 0 18.4759 0C18.0468 0 17.6872 0.145126 17.3969 0.435378L9.99519 7.83711L2.61238 0.435378C2.32212 0.145126 1.9593 0 1.52389 0C1.08849 0 0.72566 0.145126 0.435409 0.435378C0.145136 0.725656 0 1.08533 0 1.5144C0 1.9435 0.145136 2.30949 0.435409 2.61238L7.83714 9.99516L0.435409 17.3969C0.145136 17.6872 0 18.0468 0 18.4759C0 18.905 0.145136 19.2647 0.435409 19.5549Z" fill="#9D9D9D"/>
</svg>
