<svg width="205" height="75" viewBox="0 0 205 75" fill="none" xmlns="http://www.w3.org/2000/svg">
<path d="M19.1077 49.4507C19.5275 49.5699 19.9543 49.647 20.3741 49.682C20.7939 49.7171 21.2206 49.7381 21.6404 49.7381C22.6969 49.7381 23.7114 49.6049 24.684 49.3456C25.6565 49.0792 26.573 48.7007 27.4336 48.2101C28.2872 47.7194 29.0568 47.1166 29.7285 46.4087C30.4002 45.7007 30.9459 44.9157 31.3727 44.0535L39.2858 51.2872C38.2853 52.5839 37.1309 53.7475 35.8225 54.7778C34.5142 55.8082 33.1078 56.6844 31.5896 57.4063C30.0713 58.1283 28.4761 58.675 26.8039 59.0395C25.1317 59.411 23.4106 59.6003 21.6404 59.6003C18.6599 59.6003 15.8543 59.0956 13.2305 58.0863C10.6068 57.0769 8.31194 55.675 6.3459 53.8806C4.37986 52.0792 2.83362 49.9414 1.70017 47.4601C0.566723 44.9788 0 42.2521 0 39.2732C0 36.2311 0.566723 33.4484 1.70017 30.925C2.83362 28.4087 4.38686 26.2638 6.3459 24.4835C8.31194 22.7101 10.6068 21.3292 13.2305 20.3479C15.8543 19.3666 18.6599 18.876 21.6404 18.876C23.4036 18.876 25.1317 19.0652 26.8249 19.4507C28.5111 19.8363 30.1133 20.383 31.6316 21.1049C33.1498 21.8269 34.5631 22.7031 35.8855 23.7475C37.2008 24.7919 38.3623 25.9624 39.3698 27.2521L19.1077 49.4507ZM24.642 29.2007C24.1382 29.0325 23.6485 28.9274 23.1587 28.8783C22.6689 28.8292 22.1652 28.8082 21.6334 28.8082C20.1572 28.8082 18.7648 29.0535 17.4565 29.5442C16.1481 30.0349 15.0147 30.7358 14.0561 31.647C13.0906 32.5582 12.335 33.6587 11.7823 34.9414C11.2295 36.2241 10.9497 37.668 10.9497 39.2732C10.9497 39.6306 10.9706 40.0372 11.0056 40.4998C11.0476 40.9554 11.1106 41.418 11.2015 41.8877C11.2925 42.3573 11.4044 42.8059 11.5374 43.2335C11.6703 43.668 11.8382 44.0465 12.0481 44.383L24.642 29.2007Z" fill="#EF4136"/>
<path d="M85.4142 58.8784H82.8045L78.6135 53.5933C77.585 54.4344 76.4935 55.2195 75.3461 55.9485C74.1987 56.6774 72.9952 57.3153 71.7289 57.855C70.4625 58.3947 69.1611 58.8223 67.8318 59.1307C66.5024 59.4391 65.1451 59.6003 63.7737 59.6003C60.7932 59.6003 57.9876 59.0886 55.3638 58.0723C52.7401 57.0559 50.4452 55.6401 48.4792 53.8246C46.5132 52.0162 44.9669 49.8643 43.8335 47.383C42.7 44.9017 42.1333 42.1961 42.1333 39.2732C42.1333 36.3714 42.7 33.6728 43.8335 31.1774C44.9669 28.6821 46.5202 26.5232 48.4792 24.7008C50.4452 22.8784 52.7401 21.4485 55.3638 20.4181C57.9876 19.3877 60.7932 18.869 63.7737 18.869C64.7253 18.869 65.7048 18.9391 66.7193 19.0863C67.7338 19.2335 68.7203 19.4648 69.6859 19.7872C70.6514 20.1097 71.5539 20.5372 72.3935 21.0629C73.2401 21.5886 73.9468 22.2405 74.5275 23.0045V5.01855H85.4072V58.8784H85.4142ZM74.5345 39.2732C74.5345 37.9274 74.2476 36.6307 73.6809 35.369C73.1142 34.1073 72.3446 32.9929 71.365 32.0256C70.3855 31.0513 69.2451 30.2732 67.9437 29.6844C66.6353 29.0957 65.25 28.8013 63.7667 28.8013C62.2905 28.8013 60.8981 29.0396 59.5898 29.5232C58.2814 30.0069 57.148 30.6938 56.1894 31.591C55.2239 32.4882 54.4683 33.5886 53.9156 34.8854C53.3628 36.1821 53.083 37.64 53.083 39.2732C53.083 40.6891 53.3628 42.0279 53.9156 43.3036C54.4683 44.5793 55.2309 45.6868 56.1894 46.6471C57.155 47.6073 58.2884 48.3643 59.5898 48.9111C60.8981 49.4648 62.2835 49.7382 63.7667 49.7382C65.243 49.7382 66.6353 49.4438 67.9437 48.855C69.2521 48.2662 70.3925 47.4882 71.365 46.5139C72.3376 45.5396 73.1142 44.4251 73.6809 43.1704C74.2476 41.9158 74.5345 40.612 74.5345 39.2732Z" fill="black"/>
<path d="M106.383 9.88315C106.383 10.7944 106.194 11.6425 105.809 12.4345C105.425 13.2266 104.907 13.9135 104.249 14.5023C103.592 15.0911 102.822 15.5607 101.933 15.9042C101.052 16.2546 100.107 16.4229 99.1067 16.4229C98.1062 16.4229 97.1616 16.2476 96.2801 15.9042C95.3985 15.5537 94.6289 15.0911 93.9852 14.5023C93.3415 13.9135 92.8238 13.2266 92.4389 12.4345C92.0541 11.6425 91.8652 10.7944 91.8652 9.88315C91.8652 8.99296 92.0541 8.15184 92.4389 7.34576C92.8238 6.53969 93.3345 5.84576 93.9852 5.25698C94.6289 4.66819 95.3985 4.20558 96.2801 3.85511C97.1616 3.50464 98.1062 3.33643 99.1067 3.33643C100.107 3.33643 101.052 3.51165 101.933 3.85511C102.815 4.20558 103.592 4.66819 104.249 5.25698C104.907 5.84576 105.432 6.53969 105.809 7.34576C106.194 8.14483 106.383 8.99296 106.383 9.88315ZM104.522 58.8785H93.6424V20.3481H104.522V58.8785Z" fill="black"/>
<path d="M126.477 58.8787H115.675V30.1334H110.413V20.3484H115.675V18.5119C115.675 16.1357 116.171 13.9068 117.158 11.818C118.144 9.72919 119.509 7.91377 121.23 6.3647C122.958 4.81564 124.966 3.59602 127.261 2.69882C129.556 1.80163 132.012 1.35303 134.621 1.35303H142.73V11.1381H134.621C133.46 11.1381 132.382 11.3273 131.396 11.6988C130.409 12.0703 129.549 12.589 128.821 13.2479C128.093 13.9068 127.52 14.6848 127.1 15.589C126.68 16.4862 126.47 17.4675 126.47 18.5189V20.3554H139.722V30.1404H126.477V58.8787Z" fill="black"/>
<path d="M154.729 73.5559V63.6657L160.746 63.7358C161.803 63.7358 162.817 63.5816 163.79 63.2662C164.762 62.9508 165.672 62.5232 166.498 61.9695C167.33 61.4158 168.058 60.7639 168.695 60.0069C169.331 59.2499 169.842 58.4298 170.241 57.5396C169.051 57.9952 167.848 58.4508 166.624 58.9064C165.399 59.362 164.161 59.5863 162.922 59.5863C160.313 59.5863 157.857 59.1657 155.562 58.3246C153.267 57.4835 151.259 56.2919 149.531 54.7429C147.803 53.1938 146.445 51.3153 145.459 49.0933C144.472 46.8784 143.976 44.3901 143.976 41.6284V20.334H154.736V41.6284C154.736 42.9952 154.953 44.1868 155.387 45.2101C155.821 46.2335 156.409 47.0816 157.15 47.7615C157.892 48.4415 158.752 48.9531 159.739 49.2896C160.725 49.626 161.789 49.7943 162.922 49.7943C164.028 49.7943 165.077 49.5629 166.071 49.0933C167.057 48.6237 167.925 48.0069 168.66 47.2429C169.401 46.4788 169.975 45.6097 170.402 44.6354C170.821 43.6611 171.038 42.6658 171.038 41.6284V20.334H181.918V54.0069C181.89 56.7195 181.309 59.2569 180.176 61.633C179.042 64.0092 177.489 66.084 175.53 67.8573C173.564 69.6307 171.276 71.0326 168.667 72.0629C166.057 73.0933 163.258 73.612 160.278 73.612L154.729 73.5559Z" fill="black"/>
<path d="M6.08691 70.3529C6.08691 68.7969 6.96848 67.7314 8.33281 67.7314C9.69715 67.7314 10.5227 68.7478 10.5227 70.2478V70.5632H6.91951C6.9405 71.6006 7.51421 72.2104 8.40278 72.2104C9.08145 72.2104 9.50124 71.888 9.63418 71.5866L9.65517 71.5445H10.4598L10.4528 71.5796C10.2779 72.2595 9.56421 72.9324 8.38878 72.9324C6.95449 72.9394 6.08691 71.93 6.08691 70.3529ZM6.92651 69.9254H9.69715C9.61319 68.93 9.06745 68.4604 8.32581 68.4604C7.58418 68.4604 7.01745 68.9651 6.92651 69.9254Z" fill="#231F20"/>
<path d="M11.5303 70.3387V70.3317C11.5303 68.7546 12.3559 67.7312 13.6292 67.7312C14.3149 67.7312 14.9166 68.0747 15.1895 68.6144H15.2665V65.8247H16.0781V72.8481H15.2665V72.049H15.1895C14.8816 72.6098 14.3289 72.9392 13.6292 72.9392C12.3559 72.9392 11.5303 71.9088 11.5303 70.3387ZM15.2804 70.3387V70.3317C15.2804 69.1682 14.7207 68.4532 13.8112 68.4532C12.8946 68.4532 12.3559 69.1612 12.3559 70.3317V70.3387C12.3559 71.5093 12.9016 72.2172 13.8112 72.2172C14.7207 72.2172 15.2804 71.5023 15.2804 70.3387Z" fill="#231F20"/>
<path d="M17.5825 71.0746V67.8223H18.3941V70.8783C18.3941 71.7825 18.716 72.2171 19.5206 72.2171C20.4021 72.2171 20.8709 71.6774 20.8709 70.7942V67.8223H21.6755V72.848H20.8709V72.098H20.794C20.5491 72.6377 20.0383 72.9391 19.3107 72.9391C18.1632 72.9391 17.5825 72.2662 17.5825 71.0746Z" fill="#231F20"/>
<path d="M22.9277 70.3247V70.3177C22.9277 68.7546 23.8163 67.7383 25.2226 67.7383C26.44 67.7383 27.1677 68.4392 27.3146 69.3364L27.3216 69.3644H26.517L26.51 69.3504C26.384 68.8528 25.9363 68.4532 25.2156 68.4532C24.3131 68.4532 23.7463 69.1822 23.7463 70.3107V70.3177C23.7463 71.4743 24.3201 72.2172 25.2156 72.2172C25.8873 72.2172 26.3141 71.9158 26.503 71.3621L26.51 71.3341L27.3076 71.3271L27.3006 71.3761C27.0977 72.2873 26.426 72.9322 25.2226 72.9322C23.8233 72.9392 22.9277 71.9158 22.9277 70.3247Z" fill="#231F20"/>
<path d="M28.2104 71.4462V71.4392C28.2104 70.542 28.8681 70.0233 30.0366 69.9532L31.4709 69.8621V69.4065C31.4709 68.7897 31.093 68.4532 30.3444 68.4532C29.7427 68.4532 29.3509 68.6775 29.218 69.0701L29.211 69.0841H28.4064L28.4134 69.056C28.5463 68.271 29.3019 67.7383 30.3724 67.7383C31.5968 67.7383 32.2755 68.3691 32.2755 69.4135V72.8551H31.4709V72.1121H31.3939C31.0791 72.6448 30.5543 72.9392 29.8826 72.9392C28.9311 72.9392 28.2104 72.3574 28.2104 71.4462ZM30.0506 72.2313C30.8692 72.2313 31.4709 71.6916 31.4709 70.9696V70.514L30.1345 70.5981C29.3719 70.6472 29.036 70.9135 29.036 71.4182V71.4252C29.036 71.9369 29.4698 72.2313 30.0506 72.2313Z" fill="#231F20"/>
<path d="M34.0802 71.5443V68.4952H33.2896V67.8223H34.0802V66.5186H34.9128V67.8223H36.0112V68.4952H34.9128V71.341C34.9128 71.9298 35.1157 72.1681 35.6404 72.1681C35.7873 72.1681 35.8643 72.1611 36.0112 72.1471V72.834C35.8503 72.862 35.7034 72.883 35.5425 72.883C34.507 72.8901 34.0802 72.5045 34.0802 71.5443Z" fill="#231F20"/>
<path d="M37.0889 66.2941C37.0889 65.9857 37.3407 65.7334 37.6486 65.7334C37.9564 65.7334 38.2083 65.9857 38.2083 66.2941C38.2083 66.6026 37.9564 66.8549 37.6486 66.8549C37.3407 66.8549 37.0889 66.6026 37.0889 66.2941ZM37.2358 67.8222H38.0404V72.8479H37.2358V67.8222Z" fill="#231F20"/>
<path d="M39.3208 70.3389V70.3319C39.3208 68.7198 40.2024 67.7314 41.6297 67.7314C43.057 67.7314 43.9385 68.7128 43.9385 70.3319V70.3389C43.9385 71.9441 43.057 72.9394 41.6297 72.9394C40.2024 72.9394 39.3208 71.9511 39.3208 70.3389ZM43.113 70.3389V70.3319C43.113 69.1403 42.5812 68.4534 41.6297 68.4534C40.6781 68.4534 40.1464 69.1403 40.1464 70.3319V70.3389C40.1464 71.5235 40.6781 72.2174 41.6297 72.2174C42.5812 72.2174 43.113 71.5235 43.113 70.3389Z" fill="#231F20"/>
<path d="M45.1978 67.8224H46.0024V68.5794H46.0793C46.3312 68.0467 46.8 67.7383 47.5346 67.7383C48.6611 67.7383 49.2838 68.4042 49.2838 69.5958V72.8481H48.4792V69.792C48.4792 68.8878 48.1083 68.4532 47.3107 68.4532C46.5131 68.4532 46.0024 68.993 46.0024 69.8761V72.8481H45.1978V67.8224Z" fill="#231F20"/>
<path d="M53.4331 67.8226H54.2447V68.5866H54.3217C54.5456 68.0469 55.0213 67.7314 55.672 67.7314C56.3507 67.7314 56.8264 68.0889 57.0573 68.6146H57.1343C57.4072 68.0819 57.9739 67.7314 58.6665 67.7314C59.688 67.7314 60.2618 68.3202 60.2618 69.3716V72.8483H59.4502V69.5609C59.4502 68.8179 59.1143 68.4534 58.4077 68.4534C57.708 68.4534 57.2532 68.9791 57.2532 69.617V72.8483H56.4486V69.4347C56.4486 68.8389 56.0428 68.4534 55.4061 68.4534C54.7485 68.4534 54.2517 69.0282 54.2517 69.7361V72.8483H53.4401V67.8226H53.4331Z" fill="#231F20"/>
<path d="M61.416 71.4462V71.4392C61.416 70.542 62.0737 70.0233 63.2421 69.9532L64.6764 69.8621V69.4065C64.6764 68.7897 64.2986 68.4532 63.55 68.4532C62.9483 68.4532 62.5565 68.6775 62.4235 69.0701L62.4165 69.0841H61.6119L61.6189 69.056C61.7519 68.271 62.5075 67.7383 63.578 67.7383C64.8024 67.7383 65.481 68.3691 65.481 69.4135V72.8551H64.6764V72.1121H64.5995C64.2846 72.6448 63.7599 72.9392 63.0882 72.9392C62.1367 72.9392 61.416 72.3574 61.416 71.4462ZM63.2561 72.2313C64.0747 72.2313 64.6764 71.6916 64.6764 70.9696V70.514L63.3401 70.5981C62.5774 70.6472 62.2416 70.9135 62.2416 71.4182V71.4252C62.2416 71.9369 62.6754 72.2313 63.2561 72.2313Z" fill="#231F20"/>
<path d="M66.9644 67.8224H67.776V68.5794H67.8529C68.1048 68.0467 68.5736 67.7383 69.3082 67.7383C70.4347 67.7383 71.0574 68.4042 71.0574 69.5958V72.8481H70.2527V69.792C70.2527 68.8878 69.8819 68.4532 69.0843 68.4532C68.2867 68.4532 67.783 68.993 67.783 69.8761V72.8481H66.9714V67.8224H66.9644Z" fill="#231F20"/>
<path d="M72.2256 71.4462V71.4392C72.2256 70.542 72.8833 70.0233 74.0517 69.9532L75.486 69.8621V69.4065C75.486 68.7897 75.1082 68.4532 74.3595 68.4532C73.7578 68.4532 73.366 68.6775 73.2331 69.0701L73.2261 69.0841H72.4215L72.4285 69.056C72.5614 68.271 73.3171 67.7383 74.3875 67.7383C75.6119 67.7383 76.2906 68.3691 76.2906 69.4135V72.8551H75.486V72.1121H75.409C75.0942 72.6448 74.5694 72.9392 73.8978 72.9392C72.9462 72.9392 72.2256 72.3574 72.2256 71.4462ZM74.0657 72.2313C74.8843 72.2313 75.486 71.6916 75.486 70.9696V70.514L74.1496 70.5981C73.387 70.6472 73.0512 70.9135 73.0512 71.4182V71.4252C73.0512 71.9369 73.485 72.2313 74.0657 72.2313Z" fill="#231F20"/>
<path d="M77.732 73.2546L77.739 73.2476H78.5716L78.5786 73.2546C78.6696 73.6331 79.1104 73.9065 79.831 73.9065C80.7266 73.9065 81.2583 73.4789 81.2583 72.7429V71.7266H81.1813C80.8665 72.2803 80.2998 72.5958 79.6141 72.5958C78.3197 72.5958 77.5151 71.5864 77.5151 70.1775V70.1705C77.5151 68.7616 78.3197 67.7383 79.6351 67.7383C80.3418 67.7383 80.8875 68.0887 81.1953 68.6565H81.2513V67.8294H82.0629V72.785C82.0629 73.9065 81.2023 74.6285 79.831 74.6285C78.6276 74.6215 77.858 74.0747 77.732 73.2546ZM81.2863 70.1705V70.1635C81.2863 69.1682 80.7266 68.4532 79.803 68.4532C78.8725 68.4532 78.3547 69.1682 78.3547 70.1635V70.1705C78.3547 71.1658 78.8725 71.8668 79.803 71.8668C80.7336 71.8668 81.2863 71.1729 81.2863 70.1705Z" fill="#231F20"/>
<path d="M83.3223 70.3529C83.3223 68.7969 84.2038 67.7314 85.5682 67.7314C86.9325 67.7314 87.7581 68.7478 87.7581 70.2478V70.5632H84.1549C84.1759 71.6006 84.7496 72.2104 85.6381 72.2104C86.3168 72.2104 86.7366 71.888 86.8695 71.5866L86.8905 71.5445H87.6951L87.6881 71.5796C87.5132 72.2595 86.7996 72.9324 85.6241 72.9324C84.1898 72.9394 83.3223 71.93 83.3223 70.3529ZM84.1689 69.9254H86.9395C86.8555 68.93 86.3098 68.4604 85.5682 68.4604C84.8195 68.4604 84.2528 68.9651 84.1689 69.9254Z" fill="#231F20"/>
<path d="M89.0176 67.8226H89.8292V68.5866H89.9061C90.13 68.0469 90.6058 67.7314 91.2565 67.7314C91.9351 67.7314 92.4109 68.0889 92.6418 68.6146H92.7188C92.9916 68.0819 93.5584 67.7314 94.251 67.7314C95.2725 67.7314 95.8462 68.3202 95.8462 69.3716V72.8483H95.0346V69.5609C95.0346 68.8179 94.6988 68.4534 93.9921 68.4534C93.2925 68.4534 92.8377 68.9791 92.8377 69.617V72.8483H92.0331V69.4347C92.0331 68.8389 91.6273 68.4534 90.9906 68.4534C90.3329 68.4534 89.8362 69.0282 89.8362 69.7361V72.8483H89.0246V67.8226H89.0176Z" fill="#231F20"/>
<path d="M97.0498 70.3529C97.0498 68.7969 97.9314 67.7314 99.2957 67.7314C100.653 67.7314 101.486 68.7478 101.486 70.2478V70.5632H97.8824C97.9034 71.6006 98.4771 72.2104 99.3657 72.2104C100.044 72.2104 100.464 71.888 100.597 71.5866L100.618 71.5445H101.43L101.423 71.5796C101.248 72.2595 100.534 72.9324 99.3587 72.9324C97.9104 72.9394 97.0498 71.93 97.0498 70.3529ZM97.8894 69.9254H100.66C100.576 68.93 100.03 68.4604 99.2887 68.4604C98.5471 68.4604 97.9803 68.9651 97.8894 69.9254Z" fill="#231F20"/>
<path d="M102.738 67.8224H103.55V68.5794H103.627C103.878 68.0467 104.347 67.7383 105.082 67.7383C106.208 67.7383 106.831 68.4042 106.831 69.5958V72.8481H106.019V69.792C106.019 68.8878 105.649 68.4532 104.851 68.4532C104.053 68.4532 103.543 68.993 103.543 69.8761V72.8481H102.731V67.8224H102.738Z" fill="#231F20"/>
<path d="M108.608 71.5443V68.4952H107.817V67.8223H108.608V66.5186H109.448V67.8223H110.546V68.4952H109.448V71.341C109.448 71.9298 109.65 72.1681 110.175 72.1681C110.322 72.1681 110.399 72.1611 110.546 72.1471V72.834C110.385 72.862 110.231 72.883 110.077 72.883C109.042 72.8901 108.608 72.5045 108.608 71.5443Z" fill="#231F20"/>
<path d="M114.429 67.8226H115.241V68.6216H115.318C115.626 68.0609 116.185 67.7314 116.878 67.7314C118.144 67.7314 118.977 68.7618 118.977 70.3319V70.3389C118.977 71.916 118.151 72.9394 116.878 72.9394C116.192 72.9394 115.591 72.5959 115.318 72.0562H115.241V74.5305H114.429V67.8226ZM118.144 70.3389V70.3319C118.144 69.1614 117.599 68.4534 116.689 68.4534C115.78 68.4534 115.22 69.1684 115.22 70.3319V70.3389C115.22 71.5025 115.78 72.2174 116.689 72.2174C117.599 72.2174 118.144 71.5095 118.144 70.3389Z" fill="#231F20"/>
<path d="M120.285 65.8247H121.097V72.8481H120.285V65.8247Z" fill="#231F20"/>
<path d="M122.349 71.4462V71.4392C122.349 70.542 123.007 70.0233 124.175 69.9532L125.61 69.8621V69.4065C125.61 68.7897 125.232 68.4532 124.483 68.4532C123.881 68.4532 123.49 68.6775 123.357 69.0701L123.35 69.0841H122.538L122.545 69.056C122.678 68.271 123.434 67.7383 124.504 67.7383C125.728 67.7383 126.407 68.3691 126.407 69.4135V72.8551H125.596V72.1121H125.519C125.204 72.6448 124.679 72.9392 124.007 72.9392C123.07 72.9392 122.349 72.3574 122.349 71.4462ZM124.189 72.2313C125.008 72.2313 125.61 71.6916 125.61 70.9696V70.514L124.273 70.5981C123.511 70.6472 123.175 70.9135 123.175 71.4182V71.4252C123.175 71.9369 123.609 72.2313 124.189 72.2313Z" fill="#231F20"/>
<path d="M128.219 71.5443V68.4952H127.429V67.8223H128.219V66.5186H129.059V67.8223H130.157V68.4952H129.059V71.341C129.059 71.9298 129.262 72.1681 129.787 72.1681C129.933 72.1681 130.01 72.1611 130.157 72.1471V72.834C129.996 72.862 129.843 72.883 129.689 72.883C128.646 72.8901 128.219 72.5045 128.219 71.5443Z" fill="#231F20"/>
<path d="M131.697 68.4955H130.864V67.8226H131.697V67.2619C131.697 66.2595 132.201 65.7759 133.152 65.7759C133.348 65.7759 133.523 65.7899 133.691 65.8249V66.4698C133.593 66.4488 133.46 66.4488 133.313 66.4488C132.739 66.4488 132.501 66.7362 132.501 67.2829V67.8156H133.642V68.4885H132.501V72.8413H131.69V68.4955H131.697Z" fill="#231F20"/>
<path d="M134.341 70.3389V70.3319C134.341 68.7198 135.223 67.7314 136.65 67.7314C138.078 67.7314 138.959 68.7128 138.959 70.3319V70.3389C138.959 71.9441 138.078 72.9394 136.65 72.9394C135.223 72.9394 134.341 71.9511 134.341 70.3389ZM138.133 70.3389V70.3319C138.133 69.1403 137.602 68.4534 136.65 68.4534C135.706 68.4534 135.167 69.1403 135.167 70.3319V70.3389C135.167 71.5235 135.699 72.2174 136.65 72.2174C137.602 72.2174 138.133 71.5235 138.133 70.3389Z" fill="#231F20"/>
<path d="M140.219 67.8226H141.03V68.5656H141.1C141.289 68.0399 141.758 67.7314 142.437 67.7314C142.591 67.7314 142.759 67.7525 142.842 67.7665V68.5515C142.675 68.5235 142.521 68.5025 142.346 68.5025C141.576 68.5025 141.03 68.9931 141.03 69.7291V72.8413H140.219V67.8226Z" fill="#231F20"/>
<path d="M143.941 67.8226H144.753V68.5866H144.829C145.053 68.0469 145.529 67.7314 146.18 67.7314C146.858 67.7314 147.334 68.0889 147.565 68.6146H147.642C147.908 68.0819 148.482 67.7314 149.174 67.7314C150.196 67.7314 150.77 68.3202 150.77 69.3716V72.8483H149.958V69.5609C149.958 68.8179 149.622 68.4534 148.915 68.4534C148.216 68.4534 147.761 68.9791 147.761 69.617V72.8483H146.949V69.4347C146.949 68.8389 146.544 68.4534 145.907 68.4534C145.249 68.4534 144.753 69.0282 144.753 69.7361V72.8483H143.941V67.8226Z" fill="#231F20"/>
<path d="M197.129 15.0843C201.093 15.0843 204.307 11.8646 204.307 7.89276C204.307 3.92096 201.093 0.701172 197.129 0.701172C193.164 0.701172 189.95 3.92096 189.95 7.89276C189.95 11.8646 193.164 15.0843 197.129 15.0843Z" stroke="black" stroke-miterlimit="10"/>
<path d="M194.176 3.48389H197.863C199.781 3.48389 200.977 4.51427 200.977 6.12642V6.14044C200.977 7.30398 200.305 8.25024 199.165 8.60772L201.264 12.1474H199.585L197.682 8.818H195.632V12.1474H194.183V3.48389H194.176ZM197.724 7.72454C198.836 7.72454 199.487 7.16379 199.487 6.17548V6.16146C199.487 5.20118 198.801 4.61239 197.682 4.61239H195.632V7.71753H197.724V7.72454Z" fill="#231F20"/>
</svg>
