<svg width="293" height="107" viewBox="0 0 293 107" fill="none" xmlns="http://www.w3.org/2000/svg">
<path d="M27.31 70.55C27.91 70.72 28.52 70.83 29.12 70.88C29.72 70.93 30.33 70.96 30.93 70.96C32.44 70.96 33.89 70.77 35.28 70.4C36.67 70.02 37.98 69.48 39.21 68.78C40.43 68.08 41.53 67.22 42.49 66.21C43.45 65.2 44.23 64.08 44.84 62.85L56.15 73.17C54.72 75.02 53.07 76.68 51.2 78.15C49.33 79.62 47.32 80.87 45.15 81.9C42.98 82.93 40.7 83.71 38.31 84.23C35.92 84.76 33.46 85.03 30.93 85.03C26.67 85.03 22.66 84.31 18.91 82.87C15.16 81.43 11.88 79.43 9.07 76.87C6.26 74.3 4.05 71.25 2.43 67.71C0.81 64.17 0 60.28 0 56.03C0 51.69 0.81 47.72 2.43 44.12C4.05 40.53 6.27 37.47 9.07 34.93C11.88 32.4 15.16 30.43 18.91 29.03C22.66 27.63 26.67 26.93 30.93 26.93C33.45 26.93 35.92 27.2 38.34 27.75C40.75 28.3 43.04 29.08 45.21 30.11C47.38 31.14 49.4 32.39 51.29 33.88C53.17 35.37 54.83 37.04 56.27 38.88L27.31 70.55ZM35.22 41.66C34.5 41.42 33.8 41.27 33.1 41.2C32.4 41.13 31.68 41.1 30.92 41.1C28.81 41.1 26.82 41.45 24.95 42.15C23.08 42.85 21.46 43.85 20.09 45.15C18.71 46.45 17.63 48.02 16.84 49.85C16.05 51.68 15.65 53.74 15.65 56.03C15.65 56.54 15.68 57.12 15.73 57.78C15.79 58.43 15.88 59.09 16.01 59.76C16.14 60.43 16.3 61.07 16.49 61.68C16.68 62.3 16.92 62.84 17.22 63.32L35.22 41.66Z" fill="#EF4136"/>
<path d="M122.08 84H118.35L112.36 76.46C110.89 77.66 109.33 78.78 107.69 79.82C106.05 80.86 104.33 81.77 102.52 82.54C100.71 83.31 98.85 83.92 96.95 84.36C95.05 84.8 93.11 85.03 91.15 85.03C86.89 85.03 82.88 84.3 79.13 82.85C75.38 81.4 72.1 79.38 69.29 76.79C66.48 74.21 64.27 71.14 62.65 67.6C61.03 64.06 60.22 60.2 60.22 56.03C60.22 51.89 61.03 48.04 62.65 44.48C64.27 40.92 66.49 37.84 69.29 35.24C72.1 32.64 75.38 30.6 79.13 29.13C82.88 27.66 86.89 26.92 91.15 26.92C92.51 26.92 93.91 27.02 95.36 27.23C96.81 27.44 98.22 27.77 99.6 28.23C100.98 28.69 102.27 29.3 103.47 30.05C104.68 30.8 105.69 31.73 106.52 32.82V7.16H122.07V84H122.08ZM106.53 56.03C106.53 54.11 106.12 52.26 105.31 50.46C104.5 48.66 103.4 47.07 102 45.69C100.6 44.3 98.97 43.19 97.11 42.35C95.24 41.51 93.26 41.09 91.14 41.09C89.03 41.09 87.04 41.43 85.17 42.12C83.3 42.81 81.68 43.79 80.31 45.07C78.93 46.35 77.85 47.92 77.06 49.77C76.27 51.62 75.87 53.7 75.87 56.03C75.87 58.05 76.27 59.96 77.06 61.78C77.85 63.6 78.94 65.18 80.31 66.55C81.69 67.92 83.31 69 85.17 69.78C87.04 70.57 89.02 70.96 91.14 70.96C93.25 70.96 95.24 70.54 97.11 69.7C98.98 68.86 100.61 67.75 102 66.36C103.39 64.97 104.5 63.38 105.31 61.59C106.12 59.8 106.53 57.94 106.53 56.03Z" fill="black"/>
<path d="M152.05 14.1C152.05 15.4 151.78 16.61 151.23 17.74C150.68 18.87 149.94 19.85 149 20.69C148.06 21.53 146.96 22.2 145.69 22.69C144.43 23.19 143.08 23.43 141.65 23.43C140.22 23.43 138.87 23.18 137.61 22.69C136.35 22.19 135.25 21.53 134.33 20.69C133.41 19.85 132.67 18.87 132.12 17.74C131.57 16.61 131.3 15.4 131.3 14.1C131.3 12.83 131.57 11.63 132.12 10.48C132.67 9.33 133.4 8.34 134.33 7.5C135.25 6.66 136.35 6 137.61 5.5C138.87 5 140.22 4.76001 141.65 4.76001C143.08 4.76001 144.43 5.01 145.69 5.5C146.95 6 148.06 6.66 149 7.5C149.94 8.34 150.69 9.33 151.23 10.48C151.78 11.62 152.05 12.83 152.05 14.1ZM149.39 84H133.84V29.03H149.39V84Z" fill="black"/>
<path d="M180.77 84H165.33V42.99H157.81V29.03H165.33V26.41C165.33 23.02 166.04 19.84 167.45 16.86C168.86 13.88 170.81 11.29 173.27 9.08C175.74 6.87 178.61 5.13001 181.89 3.85001C185.17 2.57001 188.68 1.93001 192.41 1.93001H204V15.89H192.41C190.75 15.89 189.21 16.16 187.8 16.69C186.39 17.22 185.16 17.96 184.12 18.9C183.08 19.84 182.26 20.95 181.66 22.24C181.06 23.52 180.76 24.92 180.76 26.42V29.04H199.7V43H180.77V84Z" fill="black"/>
<path d="M221.15 104.94V90.83L229.75 90.93C231.26 90.93 232.71 90.71 234.1 90.26C235.49 89.81 236.79 89.2 237.97 88.41C239.16 87.62 240.2 86.69 241.11 85.61C242.02 84.53 242.75 83.36 243.32 82.09C241.62 82.74 239.9 83.39 238.15 84.04C236.4 84.69 234.63 85.01 232.86 85.01C229.13 85.01 225.62 84.41 222.34 83.21C219.06 82.01 216.19 80.31 213.72 78.1C211.25 75.89 209.31 73.21 207.9 70.04C206.49 66.88 205.78 63.33 205.78 59.39V29.01H221.16V59.39C221.16 61.34 221.47 63.04 222.09 64.5C222.71 65.96 223.55 67.17 224.61 68.14C225.67 69.11 226.9 69.84 228.31 70.32C229.72 70.8 231.24 71.04 232.86 71.04C234.44 71.04 235.94 70.71 237.36 70.04C238.77 69.37 240.01 68.49 241.06 67.4C242.12 66.31 242.94 65.07 243.55 63.68C244.15 62.29 244.46 60.87 244.46 59.39V29.01H260.01V77.05C259.97 80.92 259.14 84.54 257.52 87.93C255.9 91.32 253.68 94.28 250.88 96.81C248.07 99.34 244.8 101.34 241.07 102.81C237.34 104.28 233.34 105.02 229.08 105.02L221.15 104.94Z" fill="black"/>
<path d="M8.70001 100.37C8.70001 98.15 9.96001 96.63 11.91 96.63C13.86 96.63 15.04 98.08 15.04 100.22V100.67H9.89001C9.92001 102.15 10.74 103.02 12.01 103.02C12.98 103.02 13.58 102.56 13.77 102.13L13.8 102.07H14.95L14.94 102.12C14.69 103.09 13.67 104.05 11.99 104.05C9.94001 104.06 8.70001 102.62 8.70001 100.37ZM9.90002 99.76H13.86C13.74 98.34 12.96 97.67 11.9 97.67C10.84 97.67 10.03 98.39 9.90002 99.76Z" fill="#231F20"/>
<path d="M16.48 100.35V100.34C16.48 98.09 17.66 96.63 19.48 96.63C20.46 96.63 21.32 97.12 21.71 97.89H21.82V93.91H22.98V103.93H21.82V102.79H21.71C21.27 103.59 20.48 104.06 19.48 104.06C17.66 104.06 16.48 102.59 16.48 100.35ZM21.84 100.35V100.34C21.84 98.68 21.04 97.66 19.74 97.66C18.43 97.66 17.66 98.67 17.66 100.34V100.35C17.66 102.02 18.44 103.03 19.74 103.03C21.04 103.03 21.84 102.01 21.84 100.35Z" fill="#231F20"/>
<path d="M25.13 101.4V96.76H26.29V101.12C26.29 102.41 26.75 103.03 27.9 103.03C29.16 103.03 29.83 102.26 29.83 101V96.76H30.98V103.93H29.83V102.86H29.72C29.37 103.63 28.64 104.06 27.6 104.06C25.96 104.06 25.13 103.1 25.13 101.4Z" fill="#231F20"/>
<path d="M32.77 100.33V100.32C32.77 98.09 34.04 96.64 36.05 96.64C37.79 96.64 38.83 97.64 39.04 98.92L39.05 98.96H37.9L37.89 98.94C37.71 98.23 37.07 97.66 36.04 97.66C34.75 97.66 33.94 98.7 33.94 100.31V100.32C33.94 101.97 34.76 103.03 36.04 103.03C37 103.03 37.61 102.6 37.88 101.81L37.89 101.77L39.03 101.76L39.02 101.83C38.73 103.13 37.77 104.05 36.05 104.05C34.05 104.06 32.77 102.6 32.77 100.33Z" fill="#231F20"/>
<path d="M40.32 101.93V101.92C40.32 100.64 41.26 99.9 42.93 99.8L44.98 99.67V99.02C44.98 98.14 44.44 97.66 43.37 97.66C42.51 97.66 41.95 97.98 41.76 98.54L41.75 98.56H40.6L40.61 98.52C40.8 97.4 41.88 96.64 43.41 96.64C45.16 96.64 46.13 97.54 46.13 99.03V103.94H44.98V102.88H44.87C44.42 103.64 43.67 104.06 42.71 104.06C41.35 104.06 40.32 103.23 40.32 101.93ZM42.95 103.05C44.12 103.05 44.98 102.28 44.98 101.25V100.6L43.07 100.72C41.98 100.79 41.5 101.17 41.5 101.89V101.9C41.5 102.63 42.12 103.05 42.95 103.05Z" fill="#231F20"/>
<path d="M48.71 102.07V97.72H47.58V96.76H48.71V94.9H49.9V96.76H51.47V97.72H49.9V101.78C49.9 102.62 50.19 102.96 50.94 102.96C51.15 102.96 51.26 102.95 51.47 102.93V103.91C51.24 103.95 51.03 103.98 50.8 103.98C49.32 103.99 48.71 103.44 48.71 102.07Z" fill="#231F20"/>
<path d="M53.01 94.58C53.01 94.14 53.37 93.78 53.81 93.78C54.25 93.78 54.61 94.14 54.61 94.58C54.61 95.02 54.25 95.38 53.81 95.38C53.37 95.38 53.01 95.02 53.01 94.58ZM53.22 96.76H54.37V103.93H53.22V96.76Z" fill="#231F20"/>
<path d="M56.2 100.35V100.34C56.2 98.04 57.46 96.63 59.5 96.63C61.54 96.63 62.8 98.03 62.8 100.34V100.35C62.8 102.64 61.54 104.06 59.5 104.06C57.46 104.06 56.2 102.65 56.2 100.35ZM61.62 100.35V100.34C61.62 98.64 60.86 97.66 59.5 97.66C58.14 97.66 57.38 98.64 57.38 100.34V100.35C57.38 102.04 58.14 103.03 59.5 103.03C60.86 103.03 61.62 102.04 61.62 100.35Z" fill="#231F20"/>
<path d="M64.6 96.76H65.75V97.84H65.86C66.22 97.08 66.89 96.64 67.94 96.64C69.55 96.64 70.44 97.59 70.44 99.29V103.93H69.29V99.57C69.29 98.28 68.76 97.66 67.62 97.66C66.48 97.66 65.75 98.43 65.75 99.69V103.93H64.6V96.76V96.76Z" fill="#231F20"/>
<path d="M76.37 96.76H77.53V97.85H77.64C77.96 97.08 78.64 96.63 79.57 96.63C80.54 96.63 81.22 97.14 81.55 97.89H81.66C82.05 97.13 82.86 96.63 83.85 96.63C85.31 96.63 86.13 97.47 86.13 98.97V103.93H84.97V99.24C84.97 98.18 84.49 97.66 83.48 97.66C82.48 97.66 81.83 98.41 81.83 99.32V103.93H80.68V99.06C80.68 98.21 80.1 97.66 79.19 97.66C78.25 97.66 77.54 98.48 77.54 99.49V103.93H76.38V96.76H76.37Z" fill="#231F20"/>
<path d="M87.78 101.93V101.92C87.78 100.64 88.72 99.9 90.39 99.8L92.44 99.67V99.02C92.44 98.14 91.9 97.66 90.83 97.66C89.97 97.66 89.41 97.98 89.22 98.54L89.21 98.56H88.06L88.07 98.52C88.26 97.4 89.34 96.64 90.87 96.64C92.62 96.64 93.59 97.54 93.59 99.03V103.94H92.44V102.88H92.33C91.88 103.64 91.13 104.06 90.17 104.06C88.81 104.06 87.78 103.23 87.78 101.93ZM90.41 103.05C91.58 103.05 92.44 102.28 92.44 101.25V100.6L90.53 100.72C89.44 100.79 88.96 101.17 88.96 101.89V101.9C88.96 102.63 89.58 103.05 90.41 103.05Z" fill="#231F20"/>
<path d="M95.71 96.76H96.87V97.84H96.98C97.34 97.08 98.01 96.64 99.06 96.64C100.67 96.64 101.56 97.59 101.56 99.29V103.93H100.41V99.57C100.41 98.28 99.88 97.66 98.74 97.66C97.6 97.66 96.88 98.43 96.88 99.69V103.93H95.72V96.76H95.71Z" fill="#231F20"/>
<path d="M103.23 101.93V101.92C103.23 100.64 104.17 99.9 105.84 99.8L107.89 99.67V99.02C107.89 98.14 107.35 97.66 106.28 97.66C105.42 97.66 104.86 97.98 104.67 98.54L104.66 98.56H103.51L103.52 98.52C103.71 97.4 104.79 96.64 106.32 96.64C108.07 96.64 109.04 97.54 109.04 99.03V103.94H107.89V102.88H107.78C107.33 103.64 106.58 104.06 105.62 104.06C104.26 104.06 103.23 103.23 103.23 101.93ZM105.86 103.05C107.03 103.05 107.89 102.28 107.89 101.25V100.6L105.98 100.72C104.89 100.79 104.41 101.17 104.41 101.89V101.9C104.41 102.63 105.03 103.05 105.86 103.05Z" fill="#231F20"/>
<path d="M111.1 104.51L111.11 104.5H112.3L112.31 104.51C112.44 105.05 113.07 105.44 114.1 105.44C115.38 105.44 116.14 104.83 116.14 103.78V102.33H116.03C115.58 103.12 114.77 103.57 113.79 103.57C111.94 103.57 110.79 102.13 110.79 100.12V100.11C110.79 98.1 111.94 96.64 113.82 96.64C114.83 96.64 115.61 97.14 116.05 97.95H116.13V96.77H117.29V103.84C117.29 105.44 116.06 106.47 114.1 106.47C112.38 106.46 111.28 105.68 111.1 104.51ZM116.18 100.11V100.1C116.18 98.68 115.38 97.66 114.06 97.66C112.73 97.66 111.99 98.68 111.99 100.1V100.11C111.99 101.53 112.73 102.53 114.06 102.53C115.39 102.53 116.18 101.54 116.18 100.11Z" fill="#231F20"/>
<path d="M119.09 100.37C119.09 98.15 120.35 96.63 122.3 96.63C124.25 96.63 125.43 98.08 125.43 100.22V100.67H120.28C120.31 102.15 121.13 103.02 122.4 103.02C123.37 103.02 123.97 102.56 124.16 102.13L124.19 102.07H125.34L125.33 102.12C125.08 103.09 124.06 104.05 122.38 104.05C120.33 104.06 119.09 102.62 119.09 100.37ZM120.3 99.76H124.26C124.14 98.34 123.36 97.67 122.3 97.67C121.23 97.67 120.42 98.39 120.3 99.76Z" fill="#231F20"/>
<path d="M127.23 96.76H128.39V97.85H128.5C128.82 97.08 129.5 96.63 130.43 96.63C131.4 96.63 132.08 97.14 132.41 97.89H132.52C132.91 97.13 133.72 96.63 134.71 96.63C136.17 96.63 136.99 97.47 136.99 98.97V103.93H135.83V99.24C135.83 98.18 135.35 97.66 134.34 97.66C133.34 97.66 132.69 98.41 132.69 99.32V103.93H131.54V99.06C131.54 98.21 130.96 97.66 130.05 97.66C129.11 97.66 128.4 98.48 128.4 99.49V103.93H127.24V96.76H127.23Z" fill="#231F20"/>
<path d="M138.71 100.37C138.71 98.15 139.97 96.63 141.92 96.63C143.86 96.63 145.05 98.08 145.05 100.22V100.67H139.9C139.93 102.15 140.75 103.02 142.02 103.02C142.99 103.02 143.59 102.56 143.78 102.13L143.81 102.07H144.97L144.96 102.12C144.71 103.09 143.69 104.05 142.01 104.05C139.94 104.06 138.71 102.62 138.71 100.37ZM139.91 99.76H143.87C143.75 98.34 142.97 97.67 141.91 97.67C140.85 97.67 140.04 98.39 139.91 99.76Z" fill="#231F20"/>
<path d="M146.84 96.76H148V97.84H148.11C148.47 97.08 149.14 96.64 150.19 96.64C151.8 96.64 152.69 97.59 152.69 99.29V103.93H151.53V99.57C151.53 98.28 151 97.66 149.86 97.66C148.72 97.66 147.99 98.43 147.99 99.69V103.93H146.83V96.76H146.84Z" fill="#231F20"/>
<path d="M155.23 102.07V97.72H154.1V96.76H155.23V94.9H156.43V96.76H158V97.72H156.43V101.78C156.43 102.62 156.72 102.96 157.47 102.96C157.68 102.96 157.79 102.95 158 102.93V103.91C157.77 103.95 157.55 103.98 157.33 103.98C155.85 103.99 155.23 103.44 155.23 102.07Z" fill="#231F20"/>
<path d="M163.55 96.76H164.71V97.9H164.82C165.26 97.1 166.06 96.63 167.05 96.63C168.86 96.63 170.05 98.1 170.05 100.34V100.35C170.05 102.6 168.87 104.06 167.05 104.06C166.07 104.06 165.21 103.57 164.82 102.8H164.71V106.33H163.55V96.76ZM168.86 100.35V100.34C168.86 98.67 168.08 97.66 166.78 97.66C165.48 97.66 164.68 98.68 164.68 100.34V100.35C164.68 102.01 165.48 103.03 166.78 103.03C168.08 103.03 168.86 102.02 168.86 100.35Z" fill="#231F20"/>
<path d="M171.92 93.91H173.08V103.93H171.92V93.91Z" fill="#231F20"/>
<path d="M174.87 101.93V101.92C174.87 100.64 175.81 99.9 177.48 99.8L179.53 99.67V99.02C179.53 98.14 178.99 97.66 177.92 97.66C177.06 97.66 176.5 97.98 176.31 98.54L176.3 98.56H175.14L175.15 98.52C175.34 97.4 176.42 96.64 177.95 96.64C179.7 96.64 180.67 97.54 180.67 99.03V103.94H179.51V102.88H179.4C178.95 103.64 178.2 104.06 177.24 104.06C175.9 104.06 174.87 103.23 174.87 101.93ZM177.5 103.05C178.67 103.05 179.53 102.28 179.53 101.25V100.6L177.62 100.72C176.53 100.79 176.05 101.17 176.05 101.89V101.9C176.05 102.63 176.67 103.05 177.5 103.05Z" fill="#231F20"/>
<path d="M183.26 102.07V97.72H182.13V96.76H183.26V94.9H184.46V96.76H186.03V97.72H184.46V101.78C184.46 102.62 184.75 102.96 185.5 102.96C185.71 102.96 185.82 102.95 186.03 102.93V103.91C185.8 103.95 185.58 103.98 185.36 103.98C183.87 103.99 183.26 103.44 183.26 102.07Z" fill="#231F20"/>
<path d="M188.23 97.72H187.04V96.76H188.23V95.96C188.23 94.53 188.95 93.84 190.31 93.84C190.59 93.84 190.84 93.86 191.08 93.91V94.83C190.94 94.8 190.75 94.8 190.54 94.8C189.72 94.8 189.38 95.21 189.38 95.99V96.75H191.01V97.71H189.38V103.92H188.22V97.72H188.23Z" fill="#231F20"/>
<path d="M192.01 100.35V100.34C192.01 98.04 193.27 96.63 195.31 96.63C197.35 96.63 198.61 98.03 198.61 100.34V100.35C198.61 102.64 197.35 104.06 195.31 104.06C193.27 104.06 192.01 102.65 192.01 100.35ZM197.43 100.35V100.34C197.43 98.64 196.67 97.66 195.31 97.66C193.96 97.66 193.19 98.64 193.19 100.34V100.35C193.19 102.04 193.95 103.03 195.31 103.03C196.67 103.03 197.43 102.04 197.43 100.35Z" fill="#231F20"/>
<path d="M200.41 96.76H201.57V97.82H201.67C201.94 97.07 202.61 96.63 203.58 96.63C203.8 96.63 204.04 96.66 204.16 96.68V97.8C203.92 97.76 203.7 97.73 203.45 97.73C202.35 97.73 201.57 98.43 201.57 99.48V103.92H200.41V96.76Z" fill="#231F20"/>
<path d="M205.73 96.76H206.89V97.85H207C207.32 97.08 208 96.63 208.93 96.63C209.9 96.63 210.58 97.14 210.91 97.89H211.02C211.4 97.13 212.22 96.63 213.21 96.63C214.67 96.63 215.49 97.47 215.49 98.97V103.93H214.33V99.24C214.33 98.18 213.85 97.66 212.84 97.66C211.84 97.66 211.19 98.41 211.19 99.32V103.93H210.03V99.06C210.03 98.21 209.45 97.66 208.54 97.66C207.6 97.66 206.89 98.48 206.89 99.49V103.93H205.73V96.76Z" fill="#231F20"/>
<path d="M281.75 21.52C287.416 21.52 292.01 16.9265 292.01 11.26C292.01 5.59357 287.416 1 281.75 1C276.084 1 271.49 5.59357 271.49 11.26C271.49 16.9265 276.084 21.52 281.75 21.52Z" stroke="black" stroke-miterlimit="10"/>
<path d="M277.53 4.97H282.8C285.54 4.97 287.25 6.44001 287.25 8.74001V8.76001C287.25 10.42 286.29 11.77 284.66 12.28L287.66 17.33H285.26L282.54 12.58H279.61V17.33H277.54V4.97H277.53ZM282.6 11.02C284.19 11.02 285.12 10.22 285.12 8.81V8.79001C285.12 7.42001 284.14 6.58 282.54 6.58H279.61V11.01H282.6V11.02Z" fill="#231F20"/>
</svg>
