<?xml version="1.0" encoding="utf-8"?>
<!-- Generator: Adobe Illustrator 25.4.1, SVG Export Plug-In . SVG Version: 6.00 Build 0)  -->
<svg version="1.0" id="Layer_1" xmlns="http://www.w3.org/2000/svg" xmlns:xlink="http://www.w3.org/1999/xlink" x="0px" y="0px"
	 viewBox="0 0 500 500" style="enable-background:new 0 0 500 500;" xml:space="preserve">
<style type="text/css">
	.st0{fill:#EF4136;}
	.st1{fill:#231F20;}
	.st2{fill:none;stroke:#000000;stroke-miterlimit:10;}
</style>
<g>
</g>
<g>
	<g>
		<path class="st0" d="M136.64,267.25c0.6,0.17,1.21,0.28,1.81,0.33c0.6,0.05,1.21,0.08,1.81,0.08c1.51,0,2.96-0.19,4.35-0.56
			c1.39-0.38,2.7-0.92,3.93-1.62c1.22-0.7,2.32-1.56,3.28-2.57c0.96-1.01,1.74-2.13,2.35-3.36l11.31,10.32
			c-1.43,1.85-3.08,3.51-4.95,4.98c-1.87,1.47-3.88,2.72-6.05,3.75c-2.17,1.03-4.45,1.81-6.84,2.33c-2.39,0.53-4.85,0.8-7.38,0.8
			c-4.26,0-8.27-0.72-12.02-2.16c-3.75-1.44-7.03-3.44-9.84-6c-2.81-2.57-5.02-5.62-6.64-9.16c-1.62-3.54-2.43-7.43-2.43-11.68
			c0-4.34,0.81-8.31,2.43-11.91c1.62-3.59,3.84-6.65,6.64-9.19c2.81-2.53,6.09-4.5,9.84-5.9c3.75-1.4,7.76-2.1,12.02-2.1
			c2.52,0,4.99,0.27,7.41,0.82c2.41,0.55,4.7,1.33,6.87,2.36c2.17,1.03,4.19,2.28,6.08,3.77c1.88,1.49,3.54,3.16,4.98,5
			L136.64,267.25z M144.55,238.36c-0.72-0.24-1.42-0.39-2.12-0.46c-0.7-0.07-1.42-0.1-2.18-0.1c-2.11,0-4.1,0.35-5.97,1.05
			s-3.49,1.7-4.86,3c-1.38,1.3-2.46,2.87-3.25,4.7c-0.79,1.83-1.19,3.89-1.19,6.18c0,0.51,0.03,1.09,0.08,1.75
			c0.06,0.65,0.15,1.31,0.28,1.98c0.13,0.67,0.29,1.31,0.48,1.92c0.19,0.62,0.43,1.16,0.73,1.64L144.55,238.36z"/>
		<path d="M231.41,280.7h-3.73l-5.99-7.54c-1.47,1.2-3.03,2.32-4.67,3.36c-1.64,1.04-3.36,1.95-5.17,2.72
			c-1.81,0.77-3.67,1.38-5.57,1.82c-1.9,0.44-3.84,0.67-5.8,0.67c-4.26,0-8.27-0.73-12.02-2.18c-3.75-1.45-7.03-3.47-9.84-6.06
			c-2.81-2.58-5.02-5.65-6.64-9.19c-1.62-3.54-2.43-7.4-2.43-11.57c0-4.14,0.81-7.99,2.43-11.55c1.62-3.56,3.84-6.64,6.64-9.24
			c2.81-2.6,6.09-4.64,9.84-6.11c3.75-1.47,7.76-2.21,12.02-2.21c1.36,0,2.76,0.1,4.21,0.31c1.45,0.21,2.86,0.54,4.24,1
			c1.38,0.46,2.67,1.07,3.87,1.82c1.21,0.75,2.22,1.68,3.05,2.77v-25.66h15.55V280.7z M215.86,252.73c0-1.92-0.41-3.77-1.22-5.57
			c-0.81-1.8-1.91-3.39-3.31-4.77c-1.4-1.39-3.03-2.5-4.89-3.34c-1.87-0.84-3.85-1.26-5.97-1.26c-2.11,0-4.1,0.34-5.97,1.03
			c-1.87,0.69-3.49,1.67-4.86,2.95c-1.38,1.28-2.46,2.85-3.25,4.7s-1.19,3.93-1.19,6.26c0,2.02,0.4,3.93,1.19,5.75
			s1.88,3.4,3.25,4.77c1.38,1.37,3,2.45,4.86,3.23c1.87,0.79,3.85,1.18,5.97,1.18c2.11,0,4.1-0.42,5.97-1.26
			c1.87-0.84,3.5-1.95,4.89-3.34c1.39-1.39,2.5-2.98,3.31-4.77C215.45,256.5,215.86,254.64,215.86,252.73z"/>
		<path d="M261.38,210.8c0,1.3-0.27,2.51-0.82,3.64c-0.55,1.13-1.29,2.11-2.23,2.95c-0.94,0.84-2.04,1.51-3.31,2
			c-1.26,0.5-2.61,0.74-4.04,0.74c-1.43,0-2.78-0.25-4.04-0.74c-1.26-0.5-2.36-1.16-3.28-2c-0.92-0.84-1.66-1.82-2.21-2.95
			c-0.55-1.13-0.82-2.34-0.82-3.64c0-1.27,0.27-2.47,0.82-3.62c0.55-1.15,1.28-2.14,2.21-2.98c0.92-0.84,2.02-1.5,3.28-2
			c1.26-0.5,2.61-0.74,4.04-0.74c1.43,0,2.78,0.25,4.04,0.74c1.26,0.5,2.37,1.16,3.31,2c0.94,0.84,1.69,1.83,2.23,2.98
			C261.11,208.32,261.38,209.53,261.38,210.8z M258.72,280.7h-15.55v-54.97h15.55V280.7z"/>
		<path d="M290.1,280.7h-15.44v-41.01h-7.52v-13.96h7.52v-2.62c0-3.39,0.71-6.57,2.12-9.55c1.41-2.98,3.36-5.57,5.82-7.78
			c2.47-2.21,5.34-3.95,8.62-5.23c3.28-1.28,6.79-1.92,10.52-1.92h11.59v13.96h-11.59c-1.66,0-3.2,0.27-4.61,0.8
			c-1.41,0.53-2.64,1.27-3.68,2.21c-1.04,0.94-1.86,2.05-2.46,3.34c-0.6,1.28-0.9,2.68-0.9,4.18v2.62h18.94v13.96H290.1V280.7z"/>
		<path d="M330.48,301.64v-14.11l8.6,0.1c1.51,0,2.96-0.22,4.35-0.67c1.39-0.45,2.69-1.06,3.87-1.85c1.19-0.79,2.23-1.72,3.14-2.8
			c0.91-1.08,1.64-2.25,2.21-3.52c-1.7,0.65-3.42,1.3-5.17,1.95c-1.75,0.65-3.52,0.97-5.29,0.97c-3.73,0-7.24-0.6-10.52-1.8
			c-3.28-1.2-6.15-2.9-8.62-5.11c-2.47-2.21-4.41-4.89-5.82-8.06c-1.41-3.16-2.12-6.71-2.12-10.65v-30.38h15.38v30.38
			c0,1.95,0.31,3.65,0.93,5.11c0.62,1.46,1.46,2.67,2.52,3.64c1.06,0.97,2.29,1.7,3.7,2.18c1.41,0.48,2.93,0.72,4.55,0.72
			c1.58,0,3.08-0.33,4.5-1c1.41-0.67,2.65-1.55,3.7-2.64c1.06-1.09,1.88-2.33,2.49-3.72c0.6-1.39,0.91-2.81,0.91-4.29v-30.38h15.55
			v48.04c-0.04,3.87-0.87,7.49-2.49,10.88c-1.62,3.39-3.84,6.35-6.64,8.88c-2.81,2.53-6.08,4.53-9.81,6
			c-3.73,1.47-7.73,2.21-11.99,2.21L330.48,301.64z"/>
	</g>
	<g>
		<path class="st1" d="M118.03,297.07L118.03,297.07c0-2.22,1.26-3.74,3.21-3.74s3.13,1.45,3.13,3.59v0.45h-5.15
			c0.03,1.48,0.85,2.35,2.12,2.35c0.97,0,1.57-0.46,1.76-0.89l0.03-0.06h1.15l-0.01,0.05c-0.25,0.97-1.27,1.93-2.95,1.93
			C119.27,300.76,118.03,299.32,118.03,297.07z M119.23,296.46h3.96c-0.12-1.42-0.9-2.09-1.96-2.09
			C120.17,294.37,119.36,295.09,119.23,296.46z"/>
		<path class="st1" d="M125.81,297.05v-0.01c0-2.25,1.18-3.71,3-3.71c0.98,0,1.84,0.49,2.23,1.26h0.11v-3.98h1.16v10.02h-1.16v-1.14
			h-0.11c-0.44,0.8-1.23,1.27-2.23,1.27C126.99,300.76,125.81,299.29,125.81,297.05z M131.17,297.05v-0.01c0-1.66-0.8-2.68-2.1-2.68
			c-1.31,0-2.08,1.01-2.08,2.68v0.01c0,1.67,0.78,2.68,2.08,2.68C130.37,299.73,131.17,298.71,131.17,297.05z"/>
		<path class="st1" d="M134.46,298.1v-4.64h1.16v4.36c0,1.29,0.46,1.91,1.61,1.91c1.26,0,1.93-0.77,1.93-2.03v-4.24h1.15v7.17h-1.15
			v-1.07h-0.11c-0.35,0.77-1.08,1.2-2.12,1.2C135.29,300.76,134.46,299.8,134.46,298.1z"/>
		<path class="st1" d="M142.1,297.03v-0.01c0-2.23,1.27-3.68,3.28-3.68c1.74,0,2.78,1,2.99,2.28l0.01,0.04h-1.15l-0.01-0.02
			c-0.18-0.71-0.82-1.28-1.85-1.28c-1.29,0-2.1,1.04-2.1,2.65v0.01c0,1.65,0.82,2.71,2.1,2.71c0.96,0,1.57-0.43,1.84-1.22l0.01-0.04
			l1.14-0.01l-0.01,0.07c-0.29,1.3-1.25,2.22-2.97,2.22C143.38,300.76,142.1,299.3,142.1,297.03z"/>
		<path class="st1" d="M149.65,298.63v-0.01c0-1.28,0.94-2.02,2.61-2.12l2.05-0.13v-0.65c0-0.88-0.54-1.36-1.61-1.36
			c-0.86,0-1.42,0.32-1.61,0.88l-0.01,0.02h-1.15l0.01-0.04c0.19-1.12,1.27-1.88,2.8-1.88c1.75,0,2.72,0.9,2.72,2.39v4.91h-1.15
			v-1.06h-0.11c-0.45,0.76-1.2,1.18-2.16,1.18C150.68,300.76,149.65,299.93,149.65,298.63z M152.28,299.75
			c1.17,0,2.03-0.77,2.03-1.8v-0.65l-1.91,0.12c-1.09,0.07-1.57,0.45-1.57,1.17v0.01C150.83,299.33,151.45,299.75,152.28,299.75z"/>
		<path class="st1" d="M158.04,298.77v-4.35h-1.13v-0.96h1.13v-1.86h1.19v1.86h1.57v0.96h-1.57v4.06c0,0.84,0.29,1.18,1.04,1.18
			c0.21,0,0.32-0.01,0.53-0.03v0.98c-0.23,0.04-0.44,0.07-0.67,0.07C158.65,300.69,158.04,300.14,158.04,298.77z"/>
		<path class="st1" d="M162.34,291.28c0-0.44,0.36-0.8,0.8-0.8s0.8,0.36,0.8,0.8c0,0.44-0.36,0.8-0.8,0.8
			S162.34,291.72,162.34,291.28z M162.55,293.46h1.15v7.17h-1.15V293.46z"/>
		<path class="st1" d="M165.53,297.05v-0.01c0-2.3,1.26-3.71,3.3-3.71c2.04,0,3.3,1.4,3.3,3.71v0.01c0,2.29-1.26,3.71-3.3,3.71
			C166.79,300.76,165.53,299.35,165.53,297.05z M170.95,297.05v-0.01c0-1.7-0.76-2.68-2.12-2.68s-2.12,0.98-2.12,2.68v0.01
			c0,1.69,0.76,2.68,2.12,2.68S170.95,298.74,170.95,297.05z"/>
		<path class="st1" d="M173.93,293.46h1.15v1.08h0.11c0.36-0.76,1.03-1.2,2.08-1.2c1.61,0,2.5,0.95,2.5,2.65v4.64h-1.15v-4.36
			c0-1.29-0.53-1.91-1.67-1.91s-1.87,0.77-1.87,2.03v4.24h-1.15V293.46z"/>
		<path class="st1" d="M185.7,293.46h1.16v1.09h0.11c0.32-0.77,1-1.22,1.93-1.22c0.97,0,1.65,0.51,1.98,1.26h0.11
			c0.39-0.76,1.2-1.26,2.19-1.26c1.46,0,2.28,0.84,2.28,2.34v4.96h-1.16v-4.69c0-1.06-0.48-1.58-1.49-1.58c-1,0-1.65,0.75-1.65,1.66
			v4.61h-1.15v-4.87c0-0.85-0.58-1.4-1.49-1.4c-0.94,0-1.65,0.82-1.65,1.83v4.44h-1.16V293.46z"/>
		<path class="st1" d="M197.11,298.63v-0.01c0-1.28,0.94-2.02,2.61-2.12l2.05-0.13v-0.65c0-0.88-0.54-1.36-1.61-1.36
			c-0.86,0-1.42,0.32-1.61,0.88l-0.01,0.02h-1.15l0.01-0.04c0.19-1.12,1.27-1.88,2.8-1.88c1.75,0,2.72,0.9,2.72,2.39v4.91h-1.15
			v-1.06h-0.11c-0.45,0.76-1.2,1.18-2.16,1.18C198.14,300.76,197.11,299.93,197.11,298.63z M199.74,299.75
			c1.17,0,2.03-0.77,2.03-1.8v-0.65l-1.91,0.12c-1.09,0.07-1.57,0.45-1.57,1.17v0.01C198.29,299.33,198.91,299.75,199.74,299.75z"/>
		<path class="st1" d="M205.04,293.46h1.16v1.08h0.11c0.36-0.76,1.03-1.2,2.08-1.2c1.61,0,2.5,0.95,2.5,2.65v4.64h-1.15v-4.36
			c0-1.29-0.53-1.91-1.67-1.91s-1.86,0.77-1.86,2.03v4.24h-1.16V293.46z"/>
		<path class="st1" d="M212.56,298.63v-0.01c0-1.28,0.94-2.02,2.61-2.12l2.05-0.13v-0.65c0-0.88-0.54-1.36-1.61-1.36
			c-0.86,0-1.42,0.32-1.61,0.88l-0.01,0.02h-1.15l0.01-0.04c0.19-1.12,1.27-1.88,2.8-1.88c1.75,0,2.72,0.9,2.72,2.39v4.91h-1.15
			v-1.06h-0.11c-0.45,0.76-1.2,1.18-2.16,1.18C213.59,300.76,212.56,299.93,212.56,298.63z M215.19,299.75
			c1.17,0,2.03-0.77,2.03-1.8v-0.65l-1.91,0.12c-1.09,0.07-1.57,0.45-1.57,1.17v0.01C213.74,299.33,214.36,299.75,215.19,299.75z"/>
		<path class="st1" d="M220.43,301.21l0.01-0.01h1.19l0.01,0.01c0.13,0.54,0.76,0.93,1.79,0.93c1.28,0,2.04-0.61,2.04-1.66v-1.45
			h-0.11c-0.45,0.79-1.26,1.24-2.24,1.24c-1.85,0-3-1.44-3-3.45v-0.01c0-2.01,1.15-3.47,3.03-3.47c1.01,0,1.79,0.5,2.23,1.31h0.08
			v-1.18h1.16v7.07c0,1.6-1.23,2.63-3.19,2.63C221.71,303.16,220.61,302.38,220.43,301.21z M225.51,296.81v-0.01
			c0-1.42-0.8-2.44-2.12-2.44c-1.33,0-2.07,1.02-2.07,2.44v0.01c0,1.42,0.74,2.42,2.07,2.42S225.51,298.24,225.51,296.81z"/>
		<path class="st1" d="M228.42,297.07L228.42,297.07c0-2.22,1.26-3.74,3.21-3.74s3.13,1.45,3.13,3.59v0.45h-5.15
			c0.03,1.48,0.85,2.35,2.12,2.35c0.97,0,1.57-0.46,1.76-0.89l0.03-0.06h1.15l-0.01,0.05c-0.25,0.97-1.27,1.93-2.95,1.93
			C229.66,300.76,228.42,299.32,228.42,297.07z M229.63,296.46h3.96c-0.12-1.42-0.9-2.09-1.96-2.09
			C230.56,294.37,229.75,295.09,229.63,296.46z"/>
		<path class="st1" d="M236.56,293.46h1.16v1.09h0.11c0.32-0.77,1-1.22,1.93-1.22c0.97,0,1.65,0.51,1.98,1.26h0.11
			c0.39-0.76,1.2-1.26,2.19-1.26c1.46,0,2.28,0.84,2.28,2.34v4.96h-1.16v-4.69c0-1.06-0.48-1.58-1.49-1.58c-1,0-1.65,0.75-1.65,1.66
			v4.61h-1.15v-4.87c0-0.85-0.58-1.4-1.49-1.4c-0.94,0-1.65,0.82-1.65,1.83v4.44h-1.16V293.46z"/>
		<path class="st1" d="M248.04,297.07L248.04,297.07c0-2.22,1.26-3.74,3.21-3.74c1.94,0,3.13,1.45,3.13,3.59v0.45h-5.15
			c0.03,1.48,0.85,2.35,2.12,2.35c0.97,0,1.57-0.46,1.76-0.89l0.03-0.06h1.16l-0.01,0.05c-0.25,0.97-1.27,1.93-2.95,1.93
			C249.27,300.76,248.04,299.32,248.04,297.07z M249.24,296.46h3.96c-0.12-1.42-0.9-2.09-1.96-2.09
			C250.18,294.37,249.37,295.09,249.24,296.46z"/>
		<path class="st1" d="M256.17,293.46h1.16v1.08h0.11c0.36-0.76,1.03-1.2,2.08-1.2c1.61,0,2.5,0.95,2.5,2.65v4.64h-1.16v-4.36
			c0-1.29-0.53-1.91-1.67-1.91s-1.87,0.77-1.87,2.03v4.24h-1.16V293.46z"/>
		<path class="st1" d="M264.56,298.77v-4.35h-1.13v-0.96h1.13v-1.86h1.2v1.86h1.57v0.96h-1.57v4.06c0,0.84,0.29,1.18,1.04,1.18
			c0.21,0,0.32-0.01,0.53-0.03v0.98c-0.23,0.04-0.45,0.07-0.67,0.07C265.18,300.69,264.56,300.14,264.56,298.77z"/>
		<path class="st1" d="M272.88,293.46h1.16v1.14h0.11c0.44-0.8,1.24-1.27,2.23-1.27c1.81,0,3,1.47,3,3.71v0.01
			c0,2.25-1.18,3.71-3,3.71c-0.98,0-1.84-0.49-2.23-1.26h-0.11v3.53h-1.16V293.46z M278.19,297.05v-0.01c0-1.67-0.78-2.68-2.08-2.68
			c-1.3,0-2.1,1.02-2.1,2.68v0.01c0,1.66,0.8,2.68,2.1,2.68C277.41,299.73,278.19,298.72,278.19,297.05z"/>
		<path class="st1" d="M281.25,290.61h1.16v10.02h-1.16V290.61z"/>
		<path class="st1" d="M284.2,298.63v-0.01c0-1.28,0.94-2.02,2.61-2.12l2.05-0.13v-0.65c0-0.88-0.54-1.36-1.61-1.36
			c-0.86,0-1.42,0.32-1.61,0.88l-0.01,0.02h-1.16l0.01-0.04c0.19-1.12,1.27-1.88,2.8-1.88c1.75,0,2.72,0.9,2.72,2.39v4.91h-1.16
			v-1.06h-0.11c-0.45,0.76-1.2,1.18-2.16,1.18C285.23,300.76,284.2,299.93,284.2,298.63z M286.83,299.75c1.17,0,2.03-0.77,2.03-1.8
			v-0.65l-1.91,0.12c-1.09,0.07-1.57,0.45-1.57,1.17v0.01C285.38,299.33,286,299.75,286.83,299.75z"/>
		<path class="st1" d="M292.59,298.77v-4.35h-1.13v-0.96h1.13v-1.86h1.2v1.86h1.57v0.96h-1.57v4.06c0,0.84,0.29,1.18,1.04,1.18
			c0.21,0,0.32-0.01,0.53-0.03v0.98c-0.23,0.04-0.45,0.07-0.67,0.07C293.2,300.69,292.59,300.14,292.59,298.77z"/>
		<path class="st1" d="M297.56,294.42h-1.19v-0.96h1.19v-0.8c0-1.43,0.72-2.12,2.08-2.12c0.28,0,0.53,0.02,0.77,0.07v0.92
			c-0.14-0.03-0.33-0.03-0.54-0.03c-0.82,0-1.16,0.41-1.16,1.19v0.76h1.63v0.96h-1.63v6.21h-1.16V294.42z"/>
		<path class="st1" d="M301.34,297.05v-0.01c0-2.3,1.26-3.71,3.3-3.71s3.3,1.4,3.3,3.71v0.01c0,2.29-1.26,3.71-3.3,3.71
			S301.34,299.35,301.34,297.05z M306.76,297.05v-0.01c0-1.7-0.76-2.68-2.12-2.68c-1.35,0-2.12,0.98-2.12,2.68v0.01
			c0,1.69,0.76,2.68,2.12,2.68C306,299.73,306.76,298.74,306.76,297.05z"/>
		<path class="st1" d="M309.74,293.46h1.16v1.06H311c0.27-0.75,0.94-1.19,1.91-1.19c0.22,0,0.46,0.03,0.58,0.05v1.12
			c-0.24-0.04-0.46-0.07-0.71-0.07c-1.1,0-1.88,0.7-1.88,1.75v4.44h-1.16V293.46z"/>
		<path class="st1" d="M315.06,293.46h1.16v1.09h0.11c0.32-0.77,1-1.22,1.93-1.22c0.97,0,1.65,0.51,1.98,1.26h0.11
			c0.38-0.76,1.2-1.26,2.19-1.26c1.46,0,2.28,0.84,2.28,2.34v4.96h-1.16v-4.69c0-1.06-0.48-1.58-1.49-1.58c-1,0-1.65,0.75-1.65,1.66
			v4.61h-1.16v-4.87c0-0.85-0.58-1.4-1.49-1.4c-0.94,0-1.65,0.82-1.65,1.83v4.44h-1.16V293.46z"/>
	</g>
	<circle class="st2" cx="391.08" cy="207.96" r="10.26"/>
	<g>
		<path class="st1" d="M386.86,201.67h5.27c2.74,0,4.45,1.47,4.45,3.77v0.02c0,1.66-0.96,3.01-2.59,3.52l3,5.05h-2.4l-2.72-4.75
			h-2.93v4.75h-2.07V201.67z M391.93,207.72c1.59,0,2.52-0.8,2.52-2.21v-0.02c0-1.37-0.98-2.21-2.58-2.21h-2.93v4.43H391.93z"/>
	</g>
</g>
<g>
</g>
<g>
</g>
<g>
</g>
<g>
</g>
<g>
</g>
<g>
</g>
</svg>
